<svg width="22" height="26" viewBox="0 0 22 26" fill="none" xmlns="http://www.w3.org/2000/svg">
<path d="M18.2811 14.0522C18.2514 10.8292 20.9878 9.26123 21.1129 9.18823C19.5631 6.98523 17.1611 6.68423 16.317 6.66023C14.2996 6.45323 12.3426 7.83723 11.3149 7.83723C10.2667 7.83723 8.68417 6.68023 6.97853 6.71423C4.78366 6.74723 2.73033 7.98623 1.60418 9.91023C-0.719926 13.8332 1.01341 19.5982 3.24007 22.7692C4.35392 24.3222 5.65546 26.0562 7.35905 25.9952C9.02571 25.9282 9.64828 24.9592 11.6596 24.9592C13.6524 24.9592 14.237 25.9952 15.9744 25.9562C17.7631 25.9282 18.8893 24.3962 19.9642 22.8292C21.2514 21.0492 21.7683 19.2962 21.7888 19.2062C21.7467 19.1922 18.3149 17.9152 18.2811 14.0522Z" fill="black"/>
<path d="M14.999 4.57423C15.8955 3.48123 16.5088 1.99423 16.3385 0.485229C15.0411 0.541229 13.4185 1.36023 12.4842 2.42923C11.6575 3.37123 10.919 4.91523 11.1098 6.36723C12.5673 6.47323 14.0637 5.65023 14.999 4.57423Z" fill="black"/>
</svg>
