<svg width="250" height="201" viewBox="0 0 250 201" fill="none" xmlns="http://www.w3.org/2000/svg">
<g clip-path="url(#clip0_421_34941)">
<path d="M150.067 105.543C146.503 103.507 142.13 103.519 138.577 105.574L33.6728 166.245C30.4259 168.123 30.4381 172.827 33.6968 174.687L38.1183 177.213M150.067 105.543L150.217 105.278M150.067 105.543L154.488 108.068C157.746 109.928 157.759 114.633 154.512 116.51L49.6081 177.182C46.0549 179.236 41.6822 179.248 38.1183 177.213M38.1183 177.213L37.9675 177.476" stroke="url(#paint0_linear_421_34941)"/>
<path d="M143.349 22.7597L164.447 35.0473C161.135 33.1186 156.725 33.0104 151.783 35.0234L130.686 22.7358C135.627 20.7228 140.038 20.831 143.349 22.7597Z" fill="#3D56F4"/>
<path d="M140.973 15.6118C134.249 11.6957 125.022 12.2144 114.855 18.0989C102.975 24.973 92.416 37.6633 85.6543 51.8142C84.9401 53.3068 84.2701 54.8137 83.6446 56.3334L62.5449 44.0442C63.1626 42.5484 63.8246 41.059 64.5249 39.5887C71.2866 25.4123 81.8598 12.695 93.754 5.80968C103.924 -0.0747509 113.152 -0.591906 119.875 3.32256L140.971 15.6118H140.973Z" fill="url(#paint1_linear_421_34941)"/>
<path d="M83.646 56.3318C80.1962 56.7519 76.4351 58.0568 72.4995 60.3338C58.8319 68.2436 47.3107 85.3865 43.6211 101.891C43.2925 103.358 43.0257 104.821 42.8241 106.272L21.728 93.9822C21.9265 92.5567 22.1853 91.1166 22.506 89.6734C26.1797 73.15 37.7089 55.9738 51.4035 48.0494C55.336 45.7723 59.097 44.4643 62.5469 44.0442L83.646 56.3334V56.3318Z" fill="url(#paint2_linear_421_34941)"/>
<path d="M21.7279 93.9822C20.8721 94.3421 20.0006 94.7731 19.1115 95.2868C8.9016 101.196 0.652421 115.186 0.684173 126.534C0.700049 132.042 2.66233 135.915 5.84548 137.769L26.9431 150.056C23.76 148.202 21.7977 144.329 21.7818 138.822C21.7501 127.473 29.9993 113.483 40.2091 107.575C41.0982 107.061 41.9698 106.63 42.8255 106.27L21.7279 93.9822Z" fill="url(#paint3_linear_421_34941)"/>
<path d="M151.783 35.0234C149.452 14.7859 133.786 7.14156 114.854 18.0973C101.721 25.6971 90.2027 40.4034 83.6446 56.3302C80.1948 56.7503 76.4349 58.0583 72.5012 60.3338C57.6156 68.947 45.2799 88.5038 42.8255 106.27C41.9698 106.63 41.0982 107.061 40.2091 107.575C29.9993 113.483 21.7501 127.472 21.7818 138.822C21.8136 150.171 30.1151 154.583 40.3251 148.675L149.401 85.5312C161.249 78.1573 170.683 61.8424 170.645 48.5427C170.61 36.1977 162.431 30.6873 151.783 35.025V35.0234Z" fill="url(#paint4_linear_421_34941)"/>
<path d="M65.4834 40.0453C64.9236 41.2212 64.388 42.4115 63.8853 43.5938L83.1363 54.8057C83.633 53.6425 84.157 52.4873 84.6986 51.3543C87.2974 45.917 90.3789 40.8123 93.808 36.1897L74.5138 25.0255C71.1132 29.5924 68.0573 34.6493 65.4834 40.0453Z" fill="url(#paint5_linear_421_34941)" fill-opacity="0.5"/>
<path d="M76.3335 22.6706L95.6216 33.8315C96.9457 32.1687 98.314 30.5758 99.7238 29.0642L80.463 17.9191C79.0453 19.4228 77.6654 21.0093 76.3335 22.6706Z" fill="url(#paint6_linear_421_34941)" fill-opacity="0.5"/>
<path d="M104.373 24.4926L85.1527 13.3698C84.3126 14.1097 83.484 14.8799 82.6646 15.6771L101.91 26.8126C102.719 26.0122 103.542 25.2389 104.373 24.491V24.4926Z" fill="url(#paint7_linear_421_34941)" fill-opacity="0.5"/>
<path d="M23.5423 89.9038C23.2851 91.0625 23.0628 92.243 22.8818 93.4236L42.014 104.569C42.1775 103.598 42.3697 102.624 42.5871 101.657C43.8731 95.9062 46.0338 90.198 48.8439 84.8455L29.5958 73.7081C26.8635 78.905 24.7631 84.4187 23.5423 89.9038Z" fill="url(#paint8_linear_421_34941)" fill-opacity="0.5"/>
<path d="M31.02 71.1257L50.265 82.2625C51.3001 80.4692 52.4035 78.7208 53.5736 77.0357L34.3381 65.9044C33.1649 67.5883 32.0567 69.3336 31.02 71.1257Z" fill="url(#paint9_linear_421_34941)" fill-opacity="0.5"/>
<path d="M57.4204 71.9993L38.1913 60.8717C37.4912 61.7026 36.8085 62.5567 36.1401 63.4321L55.3755 74.5628C56.0407 73.6874 56.7218 72.8333 57.4204 71.9993Z" fill="url(#paint10_linear_421_34941)" fill-opacity="0.5"/>
<path d="M5.0166 113.115L24.3251 124.287C25.1998 122.437 26.2127 120.626 27.3415 118.892L8.02032 107.712C6.88841 109.444 5.87867 111.26 5.0166 113.115Z" fill="url(#paint11_linear_421_34941)" fill-opacity="0.5"/>
<path d="M1.74484 126.531C1.75912 131.453 3.40388 135.118 6.37746 136.849L22.09 146.002C21.1977 143.991 20.7278 141.569 20.7199 138.825C20.7087 135.051 21.5962 130.99 23.1489 127.013L3.86111 115.852C2.50212 119.455 1.73373 123.118 1.74325 126.53L1.74484 126.531Z" fill="url(#paint12_linear_421_34941)" fill-opacity="0.5"/>
<path d="M31.1616 113.841L11.8706 102.678C11.145 103.489 10.4481 104.338 9.78125 105.215L29.0913 116.389C29.7533 115.509 30.4455 114.659 31.1631 113.841H31.1616Z" fill="url(#paint13_linear_421_34941)" fill-opacity="0.5"/>
<g style="mix-blend-mode:multiply">
<path d="M128.353 71.3993C128.297 51.6662 114.361 43.7084 97.2291 53.6219C80.096 63.5373 66.2516 87.5695 66.3088 107.301C66.3392 117.698 70.2224 124.825 76.3969 127.791L118.422 103.463C124.554 93.3743 128.383 81.7901 128.353 71.398V71.3993Z" fill="#C7D9EB"/>
</g>
<path d="M125.995 53.8431C120.354 50.5571 112.544 51.0202 103.921 56.0087C86.7879 65.9239 72.9435 89.9567 73.0007 109.688C73.028 119.49 76.4809 126.388 82.0505 129.631L89.3435 133.954C83.7745 130.712 80.3216 123.813 80.2943 114.011C80.239 94.2783 94.0809 70.2455 111.215 60.3322C119.835 55.3436 127.648 54.8806 133.289 58.1665L125.995 53.8431Z" fill="url(#paint14_linear_421_34941)"/>
<path d="M133.215 108.811C145.349 87.8819 145.38 65.2047 133.285 58.1606C121.191 51.1163 101.549 62.3725 89.4154 83.302C77.2817 104.231 77.2501 126.908 89.3449 133.952C101.44 140.997 121.081 129.741 133.215 108.811Z" fill="url(#paint15_linear_421_34941)"/>
<mask id="mask0_421_34941" style="mask-type:luminance" maskUnits="userSpaceOnUse" x="92" y="71" width="43" height="50">
<path d="M92.5612 71.4217H134.185V120.152H92.5612V71.4217Z" fill="white"/>
</mask>
<g mask="url(#mask0_421_34941)">
<path d="M98.6206 117.372L100.63 117.819L99.9203 115.528L101.869 112.687L99.4236 114.051L98.6206 111.849L97.8181 114.986L95.3726 116.462L97.3215 117.038L96.6121 120.152L98.6206 117.372Z" fill="#FECE1D"/>
<path d="M97.3215 117.038L96.6121 120.152L96.1641 119.859L96.8358 116.895L97.3215 117.038Z" fill="#FFD66E"/>
<path d="M99.4235 114.051L99.2588 113.6L101.421 112.394L101.805 112.71L101.223 113.052L99.4235 114.051Z" fill="#FFD66E"/>
<path d="M97.366 114.689L98.1727 111.556L98.6207 111.849L97.8183 114.986L95.3727 116.462L94.9204 116.169L97.366 114.689Z" fill="#FFD66E"/>
<path d="M97.3212 117.038L96.6118 120.152L97.1717 116.996L97.3212 117.038Z" fill="white"/>
<path d="M99.4234 114.051L99.3711 113.912L101.805 112.71L101.223 113.052L99.4234 114.051Z" fill="white"/>
<path d="M97.6795 114.911L98.6206 111.849L97.8181 114.986L95.3726 116.462L97.6795 114.911Z" fill="white"/>
<path d="M128.76 100.616L130.768 101.064L130.059 98.7676L132.008 95.9318L129.562 97.2953L128.76 95.0935L127.957 98.2272L125.511 99.7075L127.46 100.278L126.751 103.396L128.76 100.616Z" fill="#FECE1D"/>
<path d="M127.46 100.278L126.751 103.396L126.303 103.1L126.975 100.135L127.46 100.278Z" fill="#FFD66E"/>
<path d="M129.562 97.2953L129.398 96.8406L131.56 95.6345L131.944 95.95L131.362 96.2923L129.562 97.2953Z" fill="#FFD66E"/>
<path d="M127.509 97.9336L128.311 94.7968L128.76 95.0935L127.957 98.2272L125.511 99.7032V99.7068L125.063 99.4102L127.509 97.9336Z" fill="#FFD66E"/>
<path d="M127.46 100.278L126.75 103.396L127.315 100.237L127.46 100.278Z" fill="white"/>
<path d="M129.562 97.2953L129.514 97.1524L131.945 95.95L131.362 96.2923L129.562 97.2953Z" fill="white"/>
<path d="M127.822 98.1555L128.76 95.0935L127.957 98.2272L125.511 99.7032V99.7075L127.822 98.1555Z" fill="white"/>
<path d="M122.846 77.2412L124.854 77.6844L124.145 75.3926L126.094 72.5561L123.648 73.9202L122.846 71.7184L122.042 74.8515L119.593 76.3318L121.546 76.9032L120.836 80.0211L122.846 77.2412Z" fill="#FECE1D"/>
<path d="M121.546 76.9032L120.836 80.0211L120.385 79.7245L121.061 76.7603L121.546 76.9032Z" fill="#FFD66E"/>
<path d="M123.648 73.9202L123.484 73.4655L125.646 72.2594L126.03 72.5749L125.444 72.9172L123.648 73.9202Z" fill="#FFD66E"/>
<path d="M121.591 74.5549L122.393 71.4217L122.845 71.7184L122.042 74.8515L119.597 76.3281H119.593L119.145 76.0351L121.591 74.5549Z" fill="#FFD66E"/>
<path d="M121.546 76.9032L120.836 80.0211L121.396 76.8619L121.546 76.9032Z" fill="white"/>
<path d="M123.648 73.9202L123.596 73.7774L126.03 72.5749L125.444 72.9166L123.648 73.9202Z" fill="white"/>
<path d="M121.905 74.7768L122.846 71.7184L122.042 74.8515L119.597 76.3281H119.593L121.905 74.7768Z" fill="white"/>
<path d="M99.3823 97.0959L101.391 97.5433L100.682 95.2515L102.635 92.4114L100.185 93.7749L99.3823 91.5737L98.5799 94.7069L96.1343 96.1871L98.0832 96.7616L97.3738 99.8765L99.3823 97.0959Z" fill="#FECE1D"/>
<path d="M98.0832 96.7616L97.3738 99.8765L96.9258 99.5792L97.5975 96.6187L98.0832 96.7616Z" fill="#FFD66E"/>
<path d="M100.185 93.7749L100.021 93.3202L102.183 92.1184L102.567 92.4339L101.985 92.7719L100.185 93.7749Z" fill="#FFD66E"/>
<path d="M98.1316 94.4138L98.9341 91.2765L99.3821 91.5737L98.5796 94.7069L96.1341 96.1871L95.686 95.8904L98.1316 94.4138Z" fill="#FFD66E"/>
<path d="M98.083 96.7616L97.3735 99.8765L97.9371 96.7166L98.083 96.7616Z" fill="white"/>
<path d="M100.185 93.7749L100.137 93.6363L102.567 92.4339L101.985 92.7719L100.185 93.7749Z" fill="white"/>
<path d="M98.4449 94.6351L99.3823 91.5737L98.5799 94.7069L96.1343 96.1871L98.4449 94.6351Z" fill="white"/>
<path d="M104.52 87.1141L106.525 87.5573L105.819 85.2655L107.768 82.429L105.323 83.7932L104.52 81.5913L103.714 84.7245L101.268 86.2011L103.221 86.7762L102.511 89.8904L104.52 87.1141Z" fill="#FECE1D"/>
<path d="M103.221 86.7762L102.511 89.8904L102.06 89.5974L102.736 86.6333L103.221 86.7762Z" fill="#FFD66E"/>
<path d="M105.323 83.7932L105.155 83.3385L107.316 82.1324L107.705 82.4479L107.118 82.7901L105.323 83.7932Z" fill="#FFD66E"/>
<path d="M103.265 84.4278L104.068 81.2947L104.52 81.5877V81.5913L103.713 84.7245L101.271 86.2011H101.268L100.82 85.9081L103.265 84.4278Z" fill="#FFD66E"/>
<path d="M103.221 86.7761L102.511 89.8904L103.071 86.7348L103.221 86.7761Z" fill="white"/>
<path d="M105.323 83.7932L105.271 83.6503L107.705 82.4479L107.119 82.7901L105.323 83.7932Z" fill="white"/>
<path d="M103.579 84.6497L104.52 81.5877V81.5913L103.714 84.7245L101.272 86.2011H101.268L103.579 84.6497Z" fill="white"/>
<path d="M113.616 79.9907L115.624 80.4382L114.915 78.1464L116.864 75.3062L114.418 76.6698L113.616 74.4686L112.813 77.6053L110.367 79.0819L112.316 79.6564L111.607 82.7713L113.616 79.9907Z" fill="#FECE1D"/>
<path d="M112.316 79.6564L111.607 82.7713L111.159 82.4783L111.831 79.5141L112.316 79.6564Z" fill="#FFD66E"/>
<path d="M114.418 76.6698L114.254 76.2193L116.416 75.0132L116.8 75.3287L116.214 75.6704L114.418 76.6698Z" fill="#FFD66E"/>
<path d="M112.361 77.3087L113.164 74.1755L113.616 74.4686L112.813 77.6053L110.367 79.0819L109.916 78.7889L112.361 77.3087Z" fill="#FFD66E"/>
<path d="M112.316 79.657L111.606 82.7713L112.166 79.6114L112.316 79.657Z" fill="white"/>
<path d="M114.418 76.6698L114.366 76.5312L116.8 75.3287L116.214 75.6704L114.418 76.6698Z" fill="white"/>
<path d="M112.675 77.5306L113.616 74.4686L112.813 77.6053L110.367 79.0819L112.675 77.5306Z" fill="white"/>
<path d="M130.936 90.1494L132.945 90.5968L132.236 88.305L134.185 85.4649L131.739 86.8284L130.936 84.6272L130.134 87.7603L127.688 89.2406L129.637 89.8151L128.928 92.93L130.936 90.1494Z" fill="#FECE1D"/>
<path d="M129.637 89.8151L128.928 92.93L128.479 92.6327L129.151 89.6728L129.637 89.8151Z" fill="#FFD66E"/>
<path d="M131.739 86.8284L131.575 86.3737L133.736 85.1719L134.121 85.4874L133.535 85.8254L131.739 86.8284Z" fill="#FFD66E"/>
<path d="M129.682 87.4673L130.484 84.3299L130.936 84.6272L130.134 87.7603L127.688 89.2406H127.684L127.236 88.9439L129.682 87.4673Z" fill="#FFD66E"/>
<path d="M129.637 89.8151L128.928 92.93L129.488 89.7701L129.637 89.8151Z" fill="white"/>
<path d="M131.739 86.8284L131.687 86.6898L134.121 85.4874L133.535 85.8254L131.739 86.8284Z" fill="white"/>
<path d="M129.996 87.6886L130.936 84.6272L130.134 87.7603L127.688 89.2406H127.685L129.996 87.6886Z" fill="white"/>
<path d="M96.2607 108.378L98.2698 108.825L97.5604 106.529L99.5094 103.693L97.0638 105.057L96.2607 102.855L95.4583 105.989L93.0127 107.469L94.9616 108.04L94.2522 111.158L96.2607 108.378Z" fill="#FECE1D"/>
<path d="M94.9617 108.04L94.2522 111.158L93.8042 110.861L94.4765 107.897L94.9617 108.04Z" fill="#FFD66E"/>
<path d="M97.0636 105.057L96.8994 104.602L99.0611 103.396L99.4459 103.712L98.8629 104.054L97.0636 105.057Z" fill="#FFD66E"/>
<path d="M95.0066 105.695L95.8091 102.559L96.2607 102.855L95.4583 105.988L93.0127 107.465V107.469L92.561 107.172L95.0066 105.695Z" fill="#FFD66E"/>
<path d="M94.9614 108.04L94.252 111.158L94.8118 107.999L94.9614 108.04Z" fill="white"/>
<path d="M97.0635 105.057L97.0112 104.914L99.4459 103.712L98.8629 104.054L97.0635 105.057Z" fill="white"/>
<path d="M95.3203 105.917L96.2607 102.855L95.4583 105.989L93.0127 107.465V107.469L95.3203 105.917Z" fill="white"/>
<path d="M129.065 81.2874L131.075 81.7342L130.365 79.4424L132.314 76.6023L129.868 77.9664L129.065 75.7646L128.263 78.8977L125.817 80.378L127.766 80.9531L127.057 84.0673L129.065 81.2874Z" fill="#FECE1D"/>
<path d="M127.766 80.9531L127.057 84.0673L126.609 83.7707L127.281 80.8102L127.766 80.9531Z" fill="#FFD66E"/>
<path d="M129.868 77.9664L129.704 77.5117L131.866 76.3093L132.25 76.6248L131.664 76.9628L129.868 77.9664Z" fill="#FFD66E"/>
<path d="M127.811 78.6047L128.614 75.4679L129.066 75.7646L128.263 78.8977L125.818 80.378H125.813L125.365 80.0813L127.811 78.6047Z" fill="#FFD66E"/>
<path d="M127.767 80.9531L127.057 84.0673L127.617 80.9075L127.767 80.9531Z" fill="white"/>
<path d="M129.869 77.9658L129.816 77.8272L132.25 76.6248L131.664 76.9628L129.869 77.9658Z" fill="white"/>
<path d="M128.124 78.8266L129.065 75.7646L128.263 78.8977L125.817 80.378H125.813L128.124 78.8266Z" fill="white"/>
<path d="M108.007 97.2576L108.145 97.1786V93.1816C108.145 90.6193 109.945 87.4971 112.163 86.2084L114.934 84.6005C117.151 83.3123 118.951 84.3451 118.951 86.9038V90.9008L119.089 90.8224C120.123 90.2211 120.96 90.702 120.96 91.8965V101.352C120.96 102.543 120.123 103.997 119.089 104.599L108.007 111.034C106.973 111.635 106.137 111.154 106.137 109.963V100.507C106.137 99.3166 106.973 97.8625 108.007 97.2613V97.2576ZM112.854 101.973V105.076L114.239 104.272V101.168C114.791 100.549 115.173 99.6771 115.173 98.9257C115.173 97.8886 114.444 97.4679 113.545 97.9901C112.645 98.5123 111.917 99.7786 111.917 100.816C111.917 101.567 112.301 101.991 112.85 101.973H112.854ZM110.475 95.8223L116.621 92.2533V89.0564C116.621 87.5986 115.598 87.0126 114.336 87.7451L112.76 88.6582C111.498 89.3907 110.475 91.1676 110.475 92.6254V95.8223Z" fill="white"/>
</g>
<path d="M80.2944 114.014C80.2647 112.186 80.3309 110.355 80.5169 108.531C80.5595 108.075 80.6245 107.622 80.6786 107.168L80.7631 106.485C80.7947 106.257 80.8343 106.033 80.8695 105.805L81.0884 104.448L81.3534 103.098C81.3996 102.874 81.4391 102.648 81.4914 102.425L81.6501 101.755C81.7583 101.31 81.8568 100.861 81.9729 100.419C82.2154 99.536 82.4391 98.6448 82.7188 97.7713C83.2361 96.0096 83.8732 94.288 84.5334 92.5755C84.8841 91.7275 85.216 90.8716 85.599 90.0375C85.7862 89.6193 85.9686 89.1974 86.1637 88.7822L86.7607 87.5409C86.9546 87.1257 87.1656 86.7184 87.3783 86.3111L88.0118 85.0886L88.6768 83.8825L89.0105 83.2795L89.3595 82.6862L90.0586 81.5008L90.7917 80.336L91.1583 79.753L91.5394 79.1804L92.3066 78.0363C93.3607 76.5342 94.4367 75.0448 95.6008 73.6236C97.9023 70.7628 100.456 68.1038 103.213 65.674L104.271 64.7895C104.447 64.643 104.621 64.4935 104.801 64.35L105.346 63.9269C105.71 63.6467 106.066 63.3573 106.437 63.0868L107.557 62.2831L107.836 62.0825L108.124 61.8917L108.698 61.5129C109.082 61.2613 109.462 61.0005 109.86 60.7713L111.045 60.0648L112.258 59.4109C112.658 59.1849 113.077 58.994 113.491 58.7934C113.906 58.5961 114.317 58.3876 114.744 58.219C115.169 58.0439 115.589 57.8546 116.019 57.6907L117.318 57.2245C119.065 56.6516 120.866 56.2284 122.696 56.0342C124.525 55.8464 126.381 55.8878 128.184 56.2299L128.523 56.292L128.693 56.3222L128.859 56.3652L129.525 56.5402L129.856 56.6278C129.967 56.6564 130.074 56.7009 130.182 56.736L130.829 56.9635C130.936 57.0033 131.047 57.0367 131.15 57.0828L131.463 57.2245L132.088 57.5077C132.195 57.5523 132.293 57.6064 132.394 57.6636L132.693 57.8307L133.292 58.1633L132.68 57.8562L132.376 57.7034C132.274 57.6509 132.173 57.6 132.066 57.5618L131.433 57.3072L131.117 57.1799C131.012 57.1369 130.901 57.1099 130.793 57.0749L130.144 56.8712C130.034 56.8394 129.929 56.798 129.818 56.7741L129.487 56.6978L128.823 56.545L128.658 56.5068L128.49 56.4814L128.153 56.432C126.362 56.152 124.535 56.171 122.744 56.4129C120.952 56.65 119.192 57.1035 117.487 57.7066C115.784 58.3161 114.141 59.0862 112.549 59.9471L111.364 60.6123L110.21 61.3281C109.821 61.5591 109.449 61.8187 109.073 62.0716L108.51 62.4515L108.228 62.6424L107.954 62.843L106.859 63.6467C106.495 63.9172 106.146 64.2072 105.788 64.4856L105.256 64.9068C105.08 65.0503 104.91 65.1999 104.737 65.3464L103.704 66.229C100.998 68.6448 98.4792 71.2752 96.2118 74.1141C95.0561 75.516 93.9874 76.9859 92.9382 78.4692L92.1759 79.5992L91.7966 80.1652L91.4318 80.7415L90.7011 81.8923L89.9996 83.0613C88.1248 86.1774 86.5194 89.4521 85.1036 92.8029C84.4172 94.488 83.7668 96.1895 83.2112 97.922C82.9127 98.7828 82.6713 99.66 82.4093 100.534C82.2835 100.971 82.1759 101.413 82.0586 101.854L81.8853 102.515C81.8282 102.736 81.7838 102.959 81.7297 103.18L81.4233 104.512L81.1631 105.853C81.12 106.077 81.0738 106.3 81.0343 106.524L80.9297 107.199C80.8628 107.65 80.782 108.1 80.7248 108.552L80.5662 109.91L80.526 110.251L80.4993 110.592L80.447 111.275C80.3546 112.183 80.3419 113.097 80.2993 114.011L80.2944 114.014Z" fill="#00C2FF"/>
<g style="mix-blend-mode:multiply">
<path d="M187.875 112.237C187.875 111.887 187.838 111.526 187.777 111.159C187.621 110.258 187.649 109.927 187.275 109.02C186.918 108.141 186.196 107.265 185.64 106.943C184.565 106.321 183.795 106.334 183.07 106.704L138.538 132.317L137.273 130.041C134.635 127.514 130.433 127.324 125.708 130.056C117.746 134.664 111.315 145.827 111.342 154.996C111.367 164.162 117.84 167.859 125.803 163.252C132.789 159.208 138.596 150.11 139.893 141.746L175.851 121.096V136.275L180.105 133.812V128.712L183.745 126.564V121.96L187.022 120.205V114.611C187.554 114.127 187.872 113.315 187.872 112.234L187.875 112.237ZM117.73 153.593C118.268 147.42 120.701 140.386 126.108 136.774L125.79 158.945C119.903 162.351 117.144 160.345 117.73 153.593Z" fill="#74B7FB" fill-opacity="0.24"/>
</g>
<path d="M186.083 121.231L190.35 118.762L188.743 135.709L186.083 134.863V121.231Z" fill="#6E6EFB"/>
<path d="M195.195 127.771V124.01L197.876 122.576V116.835L188.743 122.076V135.709L192.221 133.696V129.526L195.195 127.771Z" fill="url(#paint16_linear_421_34941)"/>
<path d="M197.876 116.624L188.743 122.076L188.59 124.123L197.876 118.762V116.624Z" fill="#6E6EFB"/>
<path d="M198.489 115.18C198.361 114.445 198.086 113.689 197.704 112.984C197.383 112.393 196.991 111.838 196.548 111.366C196.154 110.947 195.72 110.588 195.265 110.325C194.385 109.816 193.59 109.755 192.997 110.059L192.973 110.074C192.945 110.089 192.917 110.104 192.893 110.12L147.774 136.548L149.254 139.093L150.247 140.806L151.399 142.788L152.472 144.635L197.359 118.315C198.098 118.042 198.569 117.248 198.569 116.057C198.569 115.769 198.539 115.475 198.486 115.177L198.489 115.18Z" fill="url(#paint17_linear_421_34941)"/>
<g style="mix-blend-mode:multiply">
<path d="M198.569 116.06C198.569 115.772 198.539 115.478 198.486 115.18C198.48 115.153 198.474 115.122 198.468 115.095L158.662 138.563C158.662 138.563 155.795 140.518 155.376 138.159C155.009 136.089 152.98 134.223 152.13 134.008L147.769 136.545L149.248 139.09L150.242 140.803L151.393 142.785L152.466 144.632L197.353 118.311C198.093 118.039 198.563 117.245 198.563 116.053L198.569 116.06Z" fill="#417CB7"/>
</g>
<path d="M134.415 159.625C131.454 161.337 128.767 161.493 126.826 160.363L131.283 163.132C133.223 164.262 135.91 163.932 138.871 162.219L134.415 159.625Z" fill="#3C60E3"/>
<path d="M139.287 137.154L134.348 135.044L134.416 159.625L138.875 162.219L139.287 137.154Z" fill="#6E6EFB"/>
<path d="M144.587 129.729C141.968 128.203 138.34 128.417 134.333 130.737C132.328 131.898 130.421 133.475 128.688 135.329C125.854 138.362 123.495 142.145 121.945 146.075C120.68 149.283 119.959 152.591 119.965 155.676C119.977 160.228 121.581 163.432 124.167 164.94L128.623 167.534C126.038 166.027 124.907 162.823 124.891 158.27C124.882 155.182 125.552 152.076 126.82 148.862L126.542 148.703C128.091 144.782 130.506 141.039 133.333 138.012C135.057 136.168 136.919 134.575 138.914 133.42L139.031 133.487C143.034 131.168 146.418 130.798 149.037 132.323L144.581 129.729H144.587Z" fill="#1B3894"/>
<path d="M138.792 133.331C130.83 137.938 124.399 149.102 124.427 158.27C124.451 167.436 130.925 171.134 138.887 166.526C146.846 161.922 153.276 150.759 153.249 141.593C153.224 132.425 146.751 128.727 138.792 133.334V133.331ZM128.168 156.105C128.15 149.326 132.917 141.045 138.804 137.639L138.874 162.219C132.988 165.626 128.186 162.881 128.168 156.105Z" fill="url(#paint18_linear_421_34941)"/>
<mask id="mask1_421_34941" style="mask-type:luminance" maskUnits="userSpaceOnUse" x="178" y="145" width="72" height="55">
<path d="M249.316 145.101H178.186V199.917H249.316V145.101Z" fill="white"/>
</mask>
<g mask="url(#mask1_421_34941)">
<path d="M213.364 199.917C212.896 199.917 212.454 199.822 212.117 199.633L178.722 180.217C178.375 180.017 178.186 179.734 178.186 179.417C178.186 179.049 178.454 178.681 178.916 178.413L212.533 158.997C213.37 158.513 214.648 158.46 215.378 158.886L248.775 178.297C249.122 178.497 249.311 178.781 249.311 179.097C249.311 179.465 249.043 179.833 248.58 180.101L214.963 199.517C214.505 199.78 213.916 199.917 213.359 199.917H213.364ZM212.254 199.391C212.912 199.77 214.064 199.717 214.826 199.281L248.443 179.865C248.822 179.649 249.037 179.365 249.037 179.097C249.037 178.886 248.896 178.686 248.638 178.534L215.241 159.123C214.584 158.745 213.432 158.797 212.67 159.234L179.053 178.655C178.674 178.876 178.458 179.154 178.458 179.423C178.458 179.633 178.601 179.833 178.858 179.98L212.254 199.396V199.391Z" fill="url(#paint19_linear_421_34941)"/>
<path d="M212.091 192.035L179.952 173.351C179.279 172.962 179.363 172.283 180.142 171.83L212.775 152.983C213.553 152.535 214.731 152.483 215.405 152.872L247.543 171.557C248.217 171.946 248.132 172.625 247.354 173.077L214.721 191.93C213.943 192.377 212.765 192.43 212.091 192.041V192.035Z" fill="url(#paint20_linear_421_34941)"/>
<path opacity="0.4" d="M249.174 169.805L237.714 169.058L215.31 155.998C214.616 155.598 213.401 155.645 212.601 156.108L187.368 170.683L178.322 170.094V176.408H178.333C178.333 176.666 178.48 176.908 178.795 177.092L212.192 196.503C212.886 196.903 214.101 196.855 214.9 196.392L248.517 176.976C248.943 176.729 249.158 176.419 249.174 176.118H249.18V169.81L249.174 169.805Z" fill="url(#paint21_linear_421_34941)"/>
<path d="M249.174 165.543L237.714 164.796L215.31 151.736C214.616 151.336 213.401 151.383 212.601 151.846L187.368 166.421L178.322 165.832V172.146H178.333C178.333 172.404 178.48 172.646 178.795 172.83L212.192 192.241C212.886 192.641 214.101 192.593 214.9 192.13L248.517 172.714C248.943 172.467 249.158 172.157 249.174 171.856H249.18V165.548L249.174 165.543Z" fill="url(#paint22_linear_421_34941)"/>
<path d="M249.174 165.543L237.714 164.796L215.31 151.736C214.616 151.336 213.401 151.383 212.601 151.846L187.368 166.421L178.322 165.832V172.146H178.333C178.333 172.404 178.48 172.646 178.795 172.83L212.192 192.241C212.886 192.641 214.101 192.593 214.9 192.13L248.517 172.714C248.943 172.467 249.158 172.157 249.174 171.856H249.18V165.548L249.174 165.543Z" fill="url(#paint23_linear_421_34941)"/>
<path d="M212.186 185.879L178.79 166.463C178.096 166.064 178.18 165.363 178.985 164.901L212.601 145.485C213.401 145.022 214.616 144.969 215.31 145.374L248.706 164.785C249.4 165.185 249.311 165.884 248.511 166.348L214.894 185.763C214.095 186.227 212.88 186.279 212.186 185.874V185.879Z" fill="url(#paint24_linear_421_34941)"/>
<path d="M212.186 185.879L178.79 166.463C178.096 166.064 178.18 165.363 178.985 164.901L212.601 145.485C213.401 145.022 214.616 144.969 215.31 145.374L248.706 164.785C249.4 165.185 249.311 165.884 248.511 166.348L214.894 185.763C214.095 186.227 212.88 186.279 212.186 185.874V185.879Z" fill="url(#paint25_linear_421_34941)"/>
<path d="M248.511 165.774L214.894 185.19C214.095 185.653 212.88 185.706 212.186 185.3L178.79 165.895C178.59 165.779 178.464 165.642 178.39 165.49C178.227 165.848 178.353 166.216 178.79 166.469L212.186 185.879C212.88 186.279 214.095 186.231 214.894 185.769L248.511 166.353C249.084 166.021 249.284 165.569 249.106 165.195C249.006 165.406 248.811 165.611 248.511 165.779V165.774Z" fill="white"/>
</g>
<path d="M213.874 167.326C213.874 167.326 212.515 167.534 211.223 167.442C209.93 167.35 206.373 167.717 206.349 169.155C206.318 170.606 207.989 172.895 210.267 173.47C212.557 174.045 215.588 173.66 217.094 173.88C218.607 174.1 219.758 172.528 219.268 170.845C218.784 169.18 213.874 167.326 213.874 167.326Z" fill="url(#paint26_linear_421_34941)"/>
<path d="M221.876 164.376C221.876 164.376 222.312 165.288 222.042 165.79C221.766 166.292 221.037 167.534 219.017 166.022C217.015 164.523 213.127 162.277 213.127 162.277C213.127 162.277 210.935 160.698 211.18 159.156C211.425 157.632 213.507 158.091 213.507 158.091L221.882 164.376H221.876Z" fill="#160A5B"/>
<path d="M210.022 141.219C210.022 141.219 210.12 151.084 211.688 155.05C213.298 159.125 213.298 166.359 213.598 167.785C213.898 169.229 215.006 171.383 216.953 172.044C218.906 172.705 219.329 171.267 219.292 170.367C219.255 169.474 218.803 167.993 218.858 167.044C218.913 166.102 219.145 165.679 219.207 165.251C219.207 165.251 221.417 166.224 221.882 164.37C221.882 164.37 221.736 163.801 221.723 163.513C221.711 163.231 222.366 156.475 222.47 155.667C222.575 154.866 222.446 150.466 221.968 148.269C221.497 146.103 221.987 141.697 221.987 141.697L215.821 140.129L210.028 141.213L210.022 141.219Z" fill="#263799"/>
<path d="M221.962 148.275C221.491 146.109 221.981 141.703 221.981 141.703L221.441 141.568C221.374 142.174 220.988 146.053 221.417 148.042C221.889 150.233 222.011 154.627 221.907 155.429C221.796 156.237 221.136 162.975 221.148 163.256C221.16 163.538 221.307 164.113 221.307 164.113C220.841 165.967 218.637 164.994 218.637 164.994C218.576 165.422 218.343 165.839 218.288 166.781C218.233 167.73 218.68 169.211 218.717 170.098C218.754 170.991 218.331 172.43 216.377 171.769C216.317 171.751 216.261 171.714 216.206 171.689C216.445 171.83 216.69 171.952 216.959 172.044C218.912 172.705 219.335 171.267 219.298 170.368C219.262 169.474 218.808 167.993 218.864 167.044C218.919 166.102 219.157 165.594 219.219 165.166C219.219 165.166 221.423 166.224 221.882 164.37C221.882 164.37 221.736 163.801 221.723 163.513C221.711 163.231 222.366 156.475 222.47 155.668C222.574 154.866 222.446 150.466 221.968 148.269L221.962 148.275Z" fill="url(#paint27_linear_421_34941)"/>
<path d="M220.082 142.21C220.082 142.21 219.954 143.722 219.268 144.94C219.268 144.94 218.925 150.16 218.233 152.779C218.233 152.779 218.686 158.281 219.084 160.056C219.494 161.855 219.195 165.258 219.195 165.258C219.195 165.258 219.446 165.392 219.813 165.447C220.18 165.502 220.646 158.771 220.162 157.534C219.684 156.304 219.611 151.115 219.923 149.585C220.235 148.067 220.456 143.685 220.78 142.945C221.105 142.21 220.517 141.739 220.517 141.739L220.082 142.222V142.21Z" fill="#160A5B"/>
<path d="M217.308 108.148C217.308 108.148 215.478 109.262 215.398 111.483L216.715 111.318C216.715 111.318 216.513 108.833 217.308 108.141V108.148Z" fill="#160A5B"/>
<path d="M215.386 143.85C219.519 144.419 221.888 142.712 221.888 142.712C221.937 142.1 221.981 141.703 221.981 141.703L215.815 140.136L210.022 141.219C210.022 141.219 210.041 143.146 210.199 145.638C211.204 145.864 212.404 143.324 212.404 143.324L215.221 143.814C215.221 143.814 211.271 143.287 215.386 143.85Z" fill="#160A5B"/>
<path d="M210.806 141.445C210.806 141.445 219.513 146.28 224.35 139.365C224.485 139.169 224.558 138.918 224.57 138.661L224.62 136.954C224.626 136.739 224.668 136.525 224.748 136.335C224.913 135.919 224.975 135.454 224.919 134.995C224.705 133.079 224.124 127.915 224.001 126.501C223.854 124.781 225.146 118.141 226.781 115.4C228.379 112.713 225.122 106.11 225.122 106.11C225.122 106.11 224.325 104.58 222.556 104.917C222.556 104.917 224.136 106.238 223.144 107.395C222.146 108.564 219.341 109.31 219.341 109.31C219.341 109.31 214.094 111.507 212.11 114.604C212.11 114.604 211.375 116.25 211.149 118.417C210.916 120.614 210.727 125.975 210.579 126.715C210.426 127.456 209.741 132.602 209.747 132.847C209.759 133.092 210.8 141.445 210.8 141.445H210.806Z" fill="url(#paint28_linear_421_34941)"/>
<path d="M223.309 105.89C223.468 105.553 223.45 105.21 223.346 104.904C223.107 104.873 222.85 104.867 222.562 104.923C222.562 104.923 223.052 105.332 223.315 105.89H223.309Z" fill="url(#paint29_linear_421_34941)"/>
<path d="M213.457 142.523C213.457 142.523 219.777 128.196 219.893 122.903C220.009 117.805 211.535 132.608 211.535 132.608L210.8 141.445C210.8 141.445 212.441 142.284 213.451 142.523H213.457Z" fill="#263799"/>
<path d="M224.693 134.867C224.62 135.056 224.576 135.264 224.57 135.478L224.522 137.168C224.516 137.425 224.442 137.669 224.307 137.859C219.494 144.707 210.831 139.921 210.831 139.921C210.831 139.921 210.077 133.937 209.851 132.021C209.796 132.474 209.759 132.798 209.759 132.853C209.771 133.098 210.812 141.452 210.812 141.452C210.812 141.452 219.519 146.286 224.356 139.371C224.491 139.175 224.564 138.924 224.576 138.667L224.626 136.96C224.632 136.745 224.674 136.531 224.754 136.342C224.919 135.925 224.981 135.46 224.925 135.001C224.901 134.799 224.877 134.56 224.846 134.298C224.815 134.493 224.773 134.689 224.699 134.873L224.693 134.867Z" fill="url(#paint30_linear_421_34941)"/>
<path d="M226.72 114.133C225.097 116.85 223.805 123.422 223.952 125.124C223.965 125.283 223.983 125.491 224.008 125.73C224.154 123.3 225.33 117.829 226.781 115.4C227.228 114.647 227.289 113.57 227.149 112.419C227.124 113.074 227.002 113.668 226.72 114.133Z" fill="url(#paint31_linear_421_34941)"/>
<path d="M211.988 124.769C212.269 123.607 212.471 122.438 212.576 121.269C212.759 119.237 213.573 115.932 217.088 116.856C222.078 118.166 219.402 125.283 218.754 126.519C218.099 127.768 215.429 133.472 215.282 133.802C215.147 134.108 211.008 141.268 209.587 142.957C209.459 143.11 209.251 143.116 209.116 142.969C208.638 142.449 207.567 141.213 207.469 140.49C207.347 139.566 208.357 136.391 208.357 136.391C208.357 136.391 210.996 128.569 211.192 128.214C211.339 127.951 211.528 126.654 211.982 124.769H211.988Z" fill="url(#paint32_linear_421_34941)"/>
<path d="M217.382 108.313C217.382 108.313 217.051 107.365 216.146 107.187C215.239 107.01 214.743 106.703 214.676 106.355C214.609 106.006 214.639 105.59 214.456 105.064C214.278 104.537 214.186 103.283 214.192 103.252C214.198 103.221 213.525 102.952 213.519 102.64C213.507 102.334 213.953 101.275 213.916 101.19C213.886 101.104 213.567 100.407 213.659 99.8923C213.751 99.3841 213.874 98.6436 214.198 98.0382C214.516 97.4321 216.715 93.8029 221.539 96.1956C226.456 98.6315 222.318 102.554 222.636 105.382C222.636 105.382 223.052 106.012 222.152 106.942C221.246 107.878 218.815 107.872 217.382 108.319V108.313Z" fill="url(#paint33_linear_421_34941)"/>
<path d="M222.152 106.942C223.052 106.012 222.635 105.382 222.635 105.382C222.593 104.984 222.635 104.568 222.727 104.139L220.713 104.342C220.713 104.342 217.97 101.453 218.074 102.873C218.178 104.31 217.449 104.488 217.449 104.488L217.994 105.314C218.135 105.529 218.025 105.755 217.884 105.963C216.935 107.346 214.933 106.722 214.933 106.722C215.172 106.912 215.576 107.077 216.145 107.187C217.051 107.365 217.382 108.313 217.382 108.313C218.815 107.866 221.246 107.872 222.152 106.936V106.942Z" fill="#4A3DB5"/>
<path d="M214.106 96.5695C214.106 96.5695 213.678 97.5603 214.204 98.0382C214.731 98.5214 215.215 98.9743 215.215 98.9743L215.11 100.278C215.098 100.467 215.135 100.657 215.227 100.822L215.851 101.991C215.974 102.217 216.029 102.475 216.01 102.732L215.974 103.27C215.962 103.43 216.066 103.57 216.219 103.601L216.402 103.638C216.568 103.674 216.727 103.564 216.757 103.393L216.892 102.652C216.892 102.652 217.308 102.089 218.08 102.873L218.796 103.246C218.998 103.35 219.145 103.534 219.207 103.76C219.372 104.354 219.739 105.535 220.058 105.755C220.492 106.055 222.292 105.302 222.556 104.923C222.813 104.543 223.578 101.93 224.026 100.694C224.466 99.4698 224.46 96.367 220.805 95.2594C217.18 94.164 214.7 95.5105 214.106 96.5695Z" fill="#453C9E"/>
<path opacity="0.3" d="M222.556 104.917C222.813 104.537 223.578 101.924 224.026 100.688C224.026 100.688 222.513 101.526 220.621 101.642C218.723 101.759 215.184 99.3172 215.184 99.3172L215.11 100.272C215.098 100.461 215.135 100.651 215.227 100.816L215.851 101.985C215.974 102.211 216.029 102.469 216.01 102.726L215.974 103.264C215.962 103.424 216.066 103.564 216.219 103.594L216.403 103.631C216.568 103.668 216.727 103.558 216.758 103.386L216.893 102.646C216.893 102.646 217.308 102.083 218.08 102.867L219.115 103.405C219.115 103.405 219.623 105.449 220.058 105.749C220.493 106.049 222.293 105.296 222.556 104.917Z" fill="#160A5B"/>
<path d="M222.623 105.051C222.623 105.051 224.026 106.092 223.211 107.315C222.39 108.552 216.917 110.382 216.629 110.706C216.629 110.706 216.568 108.735 217.315 108.148C217.315 108.148 221.429 107.72 222.127 106.728C222.826 105.743 222.623 105.051 222.623 105.051Z" fill="#F0F6FF"/>
<path d="M223.334 109.28C223.334 109.28 220.873 110.436 219.672 110.957C218.472 111.477 217.144 112.193 217.144 112.193L216.733 111.703L216.114 112.848C216.114 112.848 214.211 113.796 213.286 114.647C212.355 115.504 211.614 116.673 211.498 116.942C211.498 116.942 214.015 114.096 215.876 113.362L216.378 113.16L216.721 112.242L217.125 112.756C217.125 112.756 222.562 110.045 223.334 109.292V109.28Z" fill="#263799"/>
<path d="M214.082 151.518C214.021 151.273 213.922 151.047 213.794 150.912L204.408 140.803C204.163 140.54 203.893 140.693 203.802 141.146L201.701 151.543C201.603 152.027 201.726 152.651 201.977 152.938L209.906 161.916L209.361 165.055L212.061 164.045C212.184 163.972 212.282 163.801 212.325 163.526L214.125 152.302C214.161 152.057 214.143 151.776 214.082 151.518Z" fill="url(#paint34_linear_421_34941)"/>
<path d="M201.585 141.537L204.047 140.699L204.126 140.674C204.212 140.662 204.31 140.699 204.402 140.803L213.788 150.913C213.916 151.053 214.021 151.273 214.076 151.518L213.696 151.666L211.535 152.516L203.324 143.459L201.579 141.537H201.585Z" fill="#453C9E"/>
<path d="M199.369 153.856L209.006 164.915C209.276 165.221 209.563 165.043 209.655 164.517L211.56 153.226C211.639 152.736 211.498 152.112 211.241 151.831L201.916 141.659C201.677 141.396 201.402 141.549 201.303 142.002L199.105 152.461C199.001 152.951 199.124 153.581 199.369 153.862V153.856Z" fill="url(#paint35_linear_421_34941)"/>
<path d="M211.02 163.985L212.869 152.73C212.949 152.241 212.802 151.616 212.545 151.335L203.189 141.194C203.116 141.115 203.036 141.072 202.962 141.066C203.06 141.035 203.17 141.066 203.275 141.182L212.631 151.323C212.894 151.604 213.035 152.228 212.955 152.718L211.106 163.973C211.044 164.333 210.898 164.548 210.72 164.535C210.861 164.486 210.965 164.284 211.014 163.985H211.02Z" fill="#160A5B"/>
<path d="M208.577 146.965L209.129 146.739C209.251 146.69 209.368 146.678 209.466 146.709L209.508 146.721C209.557 146.739 209.582 146.8 209.569 146.886L209.551 146.99L207.996 147.627L208.014 147.522C208.033 147.436 208.082 147.345 208.149 147.278L208.204 147.222C208.326 147.1 208.455 147.008 208.583 146.959L208.577 146.965Z" fill="#160A5B"/>
<path d="M208.657 148.355L207.996 147.633L209.557 146.763L210.213 147.473L208.657 148.355Z" fill="#160A5B"/>
<path d="M209.245 147.681L209.796 147.455C209.918 147.406 210.035 147.394 210.133 147.424L210.176 147.437C210.225 147.455 210.249 147.516 210.237 147.602L210.219 147.706L208.663 148.343L208.682 148.238C208.7 148.152 208.749 148.061 208.816 147.994L208.872 147.938C208.994 147.816 209.123 147.724 209.251 147.675L209.245 147.681Z" fill="url(#paint36_linear_421_34941)"/>
<path d="M209.539 147.994L209.619 147.529L209.575 147.547L209.49 148.012L209.539 147.994Z" fill="#722318"/>
<path d="M209.618 147.528L208.939 146.819L208.896 146.837L209.575 147.547L209.618 147.528Z" fill="#722318"/>
<path d="M205.614 143.752L206.159 143.532C206.281 143.483 206.398 143.471 206.49 143.507L206.532 143.52C206.582 143.538 206.606 143.599 206.588 143.685L206.569 143.783L205.026 144.407L205.045 144.309C205.063 144.224 205.112 144.132 205.179 144.071L205.234 144.016C205.357 143.9 205.485 143.808 205.614 143.759V143.752Z" fill="#160A5B"/>
<path d="M205.675 145.111L205.026 144.407L206.575 143.557L207.218 144.248L205.675 145.111Z" fill="#160A5B"/>
<path d="M206.263 144.456L206.814 144.236C206.936 144.187 207.052 144.175 207.144 144.211L207.187 144.224C207.237 144.242 207.261 144.303 207.243 144.389L207.224 144.487L205.675 145.111L205.693 145.013C205.712 144.928 205.761 144.836 205.828 144.768L205.883 144.714C206.006 144.591 206.134 144.505 206.263 144.456Z" fill="url(#paint37_linear_421_34941)"/>
<path d="M206.551 144.756L206.636 144.303L206.588 144.321L206.502 144.774L206.551 144.756Z" fill="#722318"/>
<path d="M206.636 144.303L205.963 143.612L205.926 143.63L206.588 144.321L206.636 144.303Z" fill="#722318"/>
<path d="M210.084 145.35L209.735 147.296L209.288 146.819L209.625 144.934C209.673 144.658 209.575 144.285 209.404 144.101L207.5 142.064C207.329 141.88 207.151 141.953 207.102 142.222L206.753 144.077L206.318 143.605L206.679 141.709C206.796 141.115 207.188 140.962 207.561 141.36L209.588 143.526C209.968 143.93 210.188 144.75 210.078 145.356L210.084 145.35Z" fill="#453C9E"/>
<path d="M206.795 141.855H207.646L209.894 144.53L209.882 146.041L209.735 147.296L209.159 147.528L209.27 145.955L209.324 144.884L208.877 144.058C208.877 144.058 208.026 143.177 208.02 143.152C208.014 143.128 206.795 141.855 206.795 141.855Z" fill="#453C9E"/>
<path d="M206.183 144.303L206.753 144.077L207.016 142.712L206.489 142.7L206.336 142.712L206.183 144.303Z" fill="#453C9E"/>
<path d="M206.446 141.39L207.058 141.146C207.058 141.146 206.875 141.47 206.875 141.464C206.875 141.464 206.679 141.513 206.673 141.513L206.446 141.384V141.39Z" fill="#453C9E"/>
<path d="M209.514 145.582L209.165 147.528L208.718 147.045L209.061 145.154C209.11 144.878 209.012 144.505 208.84 144.321L206.942 142.284C206.771 142.1 206.593 142.174 206.544 142.443L206.189 144.297L205.754 143.826L206.122 141.923C206.238 141.329 206.63 141.17 207.004 141.568L209.03 143.734C209.41 144.138 209.63 144.958 209.52 145.57L209.514 145.582Z" fill="#160A5B"/>
<path d="M207.616 140.43C207.616 140.43 207.114 142.29 207.169 142.779C207.23 143.269 208.008 144.285 208.516 144.505C209.019 144.732 208.865 144.052 209.012 143.648C209.159 143.251 209.214 142.351 209.214 142.351L207.616 140.424V140.43Z" fill="#453C9E"/>
<path d="M209.214 142.357L207.616 140.43C207.616 140.43 207.512 140.809 207.408 141.274C207.408 141.274 207.941 142.755 209.079 143.441C209.183 143 209.22 142.357 209.22 142.357H209.214Z" fill="#263799"/>
<path d="M207.475 140.558C207.475 140.558 207.923 142.669 209.459 143.024L209.116 140.729C209.116 140.729 207.843 140.203 207.806 140.197C207.769 140.185 207.481 140.564 207.481 140.564L207.475 140.558Z" fill="#4846A5"/>
<path d="M219.213 118.208C220.309 122.749 216.274 129.346 215.612 131.342C214.939 133.367 208.736 142.547 208.736 142.547C208.7 142.602 208.675 142.639 208.675 142.639C208.785 142.743 208.914 142.859 209.012 142.932C209.153 143.006 209.091 142.994 209.251 143.055C209.367 143.092 209.489 143.055 209.575 142.951C210.996 141.262 215.135 134.108 215.269 133.796C215.41 133.472 218.086 127.762 218.741 126.513C219.261 125.522 221.099 120.706 219.207 118.196L219.213 118.208Z" fill="url(#paint38_linear_421_34941)"/>
</g>
<defs>
<linearGradient id="paint0_linear_421_34941" x1="46.6227" y1="179.035" x2="94.0928" y2="179.035" gradientUnits="userSpaceOnUse">
<stop stop-color="#8B7CFF"/>
<stop offset="1" stop-color="#8070FF" stop-opacity="0"/>
</linearGradient>
<linearGradient id="paint1_linear_421_34941" x1="101.759" y1="0.804755" x2="101.759" y2="56.3334" gradientUnits="userSpaceOnUse">
<stop stop-color="#76E2E9"/>
<stop offset="1" stop-color="#6753FF"/>
</linearGradient>
<linearGradient id="paint2_linear_421_34941" x1="52.6871" y1="44.0442" x2="52.6871" y2="106.272" gradientUnits="userSpaceOnUse">
<stop stop-color="#76E2E9"/>
<stop offset="1" stop-color="#6753FF"/>
</linearGradient>
<linearGradient id="paint3_linear_421_34941" x1="21.7548" y1="93.9822" x2="21.7548" y2="150.056" gradientUnits="userSpaceOnUse">
<stop stop-color="#79B9BD"/>
<stop offset="1" stop-color="#6753FF"/>
</linearGradient>
<linearGradient id="paint4_linear_421_34941" x1="96.2136" y1="13.092" x2="40.5314" y2="146.548" gradientUnits="userSpaceOnUse">
<stop stop-color="#EEF9FF"/>
<stop offset="1" stop-color="#D6FDEF"/>
</linearGradient>
<linearGradient id="paint5_linear_421_34941" x1="78.8463" y1="25.0255" x2="78.8463" y2="54.8057" gradientUnits="userSpaceOnUse">
<stop stop-color="#5C6DD0"/>
<stop offset="1" stop-color="#1F58C6"/>
</linearGradient>
<linearGradient id="paint6_linear_421_34941" x1="88.0289" y1="17.9191" x2="88.0289" y2="33.8315" gradientUnits="userSpaceOnUse">
<stop stop-color="#5C6DD0"/>
<stop offset="1" stop-color="#1F58C6"/>
</linearGradient>
<linearGradient id="paint7_linear_421_34941" x1="93.5193" y1="13.3698" x2="93.5193" y2="26.8126" gradientUnits="userSpaceOnUse">
<stop stop-color="#5C6DD0"/>
<stop offset="1" stop-color="#1F58C6"/>
</linearGradient>
<linearGradient id="paint8_linear_421_34941" x1="35.8629" y1="73.7081" x2="35.8629" y2="104.569" gradientUnits="userSpaceOnUse">
<stop stop-color="#5C6DD0"/>
<stop offset="1" stop-color="#1F58C6"/>
</linearGradient>
<linearGradient id="paint9_linear_421_34941" x1="42.2968" y1="65.9044" x2="42.2968" y2="82.2625" gradientUnits="userSpaceOnUse">
<stop stop-color="#5C6DD0"/>
<stop offset="1" stop-color="#1F58C6"/>
</linearGradient>
<linearGradient id="paint10_linear_421_34941" x1="46.7803" y1="60.8717" x2="46.7803" y2="74.5628" gradientUnits="userSpaceOnUse">
<stop stop-color="#5C6DD0"/>
<stop offset="1" stop-color="#1F58C6"/>
</linearGradient>
<linearGradient id="paint11_linear_421_34941" x1="16.179" y1="107.712" x2="16.179" y2="124.287" gradientUnits="userSpaceOnUse">
<stop stop-color="#5C6DD0"/>
<stop offset="1" stop-color="#1F58C6"/>
</linearGradient>
<linearGradient id="paint12_linear_421_34941" x1="12.4461" y1="115.852" x2="12.4461" y2="146.002" gradientUnits="userSpaceOnUse">
<stop stop-color="#5C6DD0"/>
<stop offset="1" stop-color="#1F58C6"/>
</linearGradient>
<linearGradient id="paint13_linear_421_34941" x1="20.4722" y1="102.678" x2="20.4722" y2="116.389" gradientUnits="userSpaceOnUse">
<stop stop-color="#5C6DD0"/>
<stop offset="1" stop-color="#1F58C6"/>
</linearGradient>
<linearGradient id="paint14_linear_421_34941" x1="81.901" y1="112.791" x2="141.291" y2="76.2436" gradientUnits="userSpaceOnUse">
<stop stop-color="#3C9EB4"/>
<stop offset="1" stop-color="#6E6EFB"/>
</linearGradient>
<linearGradient id="paint15_linear_421_34941" x1="89.4154" y1="83.302" x2="133.265" y2="108.724" gradientUnits="userSpaceOnUse">
<stop stop-color="#7CD0FF"/>
<stop offset="1" stop-color="#3E40EF"/>
</linearGradient>
<linearGradient id="paint16_linear_421_34941" x1="193.309" y1="116.835" x2="193.309" y2="135.709" gradientUnits="userSpaceOnUse">
<stop stop-color="#1E52FF"/>
<stop offset="1" stop-color="#00E2FF"/>
</linearGradient>
<linearGradient id="paint17_linear_421_34941" x1="173.172" y1="109.875" x2="173.172" y2="144.635" gradientUnits="userSpaceOnUse">
<stop stop-color="#1E52FF"/>
<stop offset="1" stop-color="#00E2FF"/>
</linearGradient>
<linearGradient id="paint18_linear_421_34941" x1="138.838" y1="131.352" x2="138.838" y2="168.509" gradientUnits="userSpaceOnUse">
<stop stop-color="#1E52FF"/>
<stop offset="1" stop-color="#00E2FF"/>
</linearGradient>
<linearGradient id="paint19_linear_421_34941" x1="213.748" y1="158.597" x2="213.748" y2="199.917" gradientUnits="userSpaceOnUse">
<stop stop-color="#42E8E0"/>
<stop offset="1" stop-color="#8B7CFF"/>
</linearGradient>
<linearGradient id="paint20_linear_421_34941" x1="568.509" y1="381.363" x2="603.205" y2="401.385" gradientUnits="userSpaceOnUse">
<stop stop-color="#C0BFF6"/>
<stop offset="0.29" stop-color="#C4C3F6"/>
<stop offset="0.64" stop-color="#D2D2F9"/>
<stop offset="1" stop-color="#E9E9FD"/>
</linearGradient>
<linearGradient id="paint21_linear_421_34941" x1="213.751" y1="155.727" x2="213.751" y2="196.774" gradientUnits="userSpaceOnUse">
<stop stop-color="#42E8E0"/>
<stop offset="1" stop-color="#8B7CFF"/>
</linearGradient>
<linearGradient id="paint22_linear_421_34941" x1="185.538" y1="171.988" x2="222.163" y2="171.988" gradientUnits="userSpaceOnUse">
<stop offset="0.35" stop-color="#BCBEFF"/>
<stop offset="0.44" stop-color="#B5B7FC"/>
<stop offset="0.57" stop-color="#A2A6F5"/>
<stop offset="0.72" stop-color="#848AE8"/>
<stop offset="0.88" stop-color="#5A63D8"/>
<stop offset="0.89" stop-color="#5761D7"/>
</linearGradient>
<linearGradient id="paint23_linear_421_34941" x1="174.225" y1="171.988" x2="221.626" y2="171.988" gradientUnits="userSpaceOnUse">
<stop stop-color="#2FD3C7"/>
<stop offset="0.09" stop-color="#30B5BD"/>
<stop offset="0.23" stop-color="#338CAF"/>
<stop offset="0.37" stop-color="#356BA4"/>
<stop offset="0.52" stop-color="#36519C"/>
<stop offset="0.67" stop-color="#383E95"/>
<stop offset="0.83" stop-color="#383392"/>
<stop offset="1" stop-color="#393091"/>
</linearGradient>
<linearGradient id="paint24_linear_421_34941" x1="564.902" y1="372.418" x2="600.928" y2="393.208" gradientUnits="userSpaceOnUse">
<stop stop-color="#E9E9FD"/>
<stop offset="0.36" stop-color="#D2D2F9"/>
<stop offset="0.71" stop-color="#C4C3F6"/>
<stop offset="1" stop-color="#C0BFF6"/>
</linearGradient>
<linearGradient id="paint25_linear_421_34941" x1="213.747" y1="145.101" x2="244.466" y2="175.867" gradientUnits="userSpaceOnUse">
<stop stop-color="#476BE8"/>
<stop offset="1" stop-color="#00C6DA"/>
</linearGradient>
<linearGradient id="paint26_linear_421_34941" x1="212.865" y1="167.326" x2="212.865" y2="173.901" gradientUnits="userSpaceOnUse">
<stop stop-color="#4E3DAE"/>
<stop offset="1" stop-color="#00A9BE"/>
</linearGradient>
<linearGradient id="paint27_linear_421_34941" x1="216.2" y1="156.892" x2="222.501" y2="156.892" gradientUnits="userSpaceOnUse">
<stop stop-color="#5761D7"/>
<stop offset="0.07" stop-color="#5471D8"/>
<stop offset="0.28" stop-color="#4D9BDA"/>
<stop offset="0.48" stop-color="#48BDDD"/>
<stop offset="0.67" stop-color="#44D4DE"/>
<stop offset="0.85" stop-color="#42E3DF"/>
<stop offset="1" stop-color="#42E8E0"/>
</linearGradient>
<linearGradient id="paint28_linear_421_34941" x1="218.485" y1="104.868" x2="218.485" y2="143.089" gradientUnits="userSpaceOnUse">
<stop stop-color="#453C9E"/>
<stop offset="1" stop-color="#3DC1F0"/>
</linearGradient>
<linearGradient id="paint29_linear_421_34941" x1="222.556" y1="105.382" x2="223.426" y2="105.382" gradientUnits="userSpaceOnUse">
<stop stop-color="#5761D7"/>
<stop offset="0.07" stop-color="#5471D8"/>
<stop offset="0.28" stop-color="#4D9BDA"/>
<stop offset="0.48" stop-color="#48BDDD"/>
<stop offset="0.67" stop-color="#44D4DE"/>
<stop offset="0.85" stop-color="#42E3DF"/>
<stop offset="1" stop-color="#42E8E0"/>
</linearGradient>
<linearGradient id="paint30_linear_421_34941" x1="209.747" y1="137.553" x2="224.938" y2="137.553" gradientUnits="userSpaceOnUse">
<stop stop-color="#5761D7"/>
<stop offset="0.07" stop-color="#5471D8"/>
<stop offset="0.28" stop-color="#4D9BDA"/>
<stop offset="0.48" stop-color="#48BDDD"/>
<stop offset="0.67" stop-color="#44D4DE"/>
<stop offset="0.85" stop-color="#42E3DF"/>
<stop offset="1" stop-color="#42E8E0"/>
</linearGradient>
<linearGradient id="paint31_linear_421_34941" x1="223.94" y1="119.078" x2="227.209" y2="119.078" gradientUnits="userSpaceOnUse">
<stop stop-color="#5761D7"/>
<stop offset="0.07" stop-color="#5471D8"/>
<stop offset="0.28" stop-color="#4D9BDA"/>
<stop offset="0.48" stop-color="#48BDDD"/>
<stop offset="0.67" stop-color="#44D4DE"/>
<stop offset="0.85" stop-color="#42E3DF"/>
<stop offset="1" stop-color="#42E8E0"/>
</linearGradient>
<linearGradient id="paint32_linear_421_34941" x1="213.755" y1="116.697" x2="213.755" y2="143.076" gradientUnits="userSpaceOnUse">
<stop stop-color="#615EFF"/>
<stop offset="1" stop-color="#100F45"/>
</linearGradient>
<linearGradient id="paint33_linear_421_34941" x1="218.741" y1="95.3883" x2="218.741" y2="108.319" gradientUnits="userSpaceOnUse">
<stop stop-color="#4FBBB3"/>
<stop offset="1" stop-color="#8B7CFF"/>
</linearGradient>
<linearGradient id="paint34_linear_421_34941" x1="201.665" y1="152.859" x2="214.143" y2="152.859" gradientUnits="userSpaceOnUse">
<stop stop-color="#5761D7"/>
<stop offset="0.07" stop-color="#5471D8"/>
<stop offset="0.28" stop-color="#4D9BDA"/>
<stop offset="0.48" stop-color="#48BDDD"/>
<stop offset="0.67" stop-color="#44D4DE"/>
<stop offset="0.85" stop-color="#42E3DF"/>
<stop offset="1" stop-color="#42E8E0"/>
</linearGradient>
<linearGradient id="paint35_linear_421_34941" x1="205.325" y1="141.531" x2="205.325" y2="165.064" gradientUnits="userSpaceOnUse">
<stop stop-color="#452DFF"/>
<stop offset="1" stop-color="#00E2FF"/>
</linearGradient>
<linearGradient id="paint36_linear_421_34941" x1="208.657" y1="147.884" x2="210.237" y2="147.884" gradientUnits="userSpaceOnUse">
<stop stop-color="#5761D7"/>
<stop offset="0.07" stop-color="#5471D8"/>
<stop offset="0.28" stop-color="#4D9BDA"/>
<stop offset="0.48" stop-color="#48BDDD"/>
<stop offset="0.67" stop-color="#44D4DE"/>
<stop offset="0.85" stop-color="#42E3DF"/>
<stop offset="1" stop-color="#42E8E0"/>
</linearGradient>
<linearGradient id="paint37_linear_421_34941" x1="205.675" y1="144.652" x2="207.243" y2="144.652" gradientUnits="userSpaceOnUse">
<stop stop-color="#5761D7"/>
<stop offset="0.07" stop-color="#5471D8"/>
<stop offset="0.28" stop-color="#4D9BDA"/>
<stop offset="0.48" stop-color="#48BDDD"/>
<stop offset="0.67" stop-color="#44D4DE"/>
<stop offset="0.85" stop-color="#42E3DF"/>
<stop offset="1" stop-color="#42E8E0"/>
</linearGradient>
<linearGradient id="paint38_linear_421_34941" x1="208.681" y1="130.638" x2="220.052" y2="130.638" gradientUnits="userSpaceOnUse">
<stop stop-color="#5761D7"/>
<stop offset="0.07" stop-color="#5471D8"/>
<stop offset="0.28" stop-color="#4D9BDA"/>
<stop offset="0.48" stop-color="#48BDDD"/>
<stop offset="0.67" stop-color="#44D4DE"/>
<stop offset="0.85" stop-color="#42E3DF"/>
<stop offset="1" stop-color="#42E8E0"/>
</linearGradient>
<clipPath id="clip0_421_34941">
<rect width="248.632" height="200" fill="white" transform="translate(0.684082 0.267944)"/>
</clipPath>
</defs>
</svg>
