<svg width="296" height="241" viewBox="0 0 296 241" fill="none" xmlns="http://www.w3.org/2000/svg">
<g clip-path="url(#clip0_421_34068)">
<path d="M244.805 152.335V150.271L230.06 157.657L229.221 155.717L131.049 98.9494C129.868 98.2662 127.516 98.3524 126.152 99.1433L83.6237 123.582V122.902L77.1656 126.046L76.2563 125.676L76.3793 128.662C76.4799 129.315 76.7296 129.58 77.1283 129.811L179.292 189.042C180.473 189.725 182.559 189.717 183.923 188.926L243.225 154.951C244.82 154.138 244.809 152.332 244.809 152.332L244.805 152.335Z" fill="url(#paint0_linear_421_34068)"/>
<path d="M142.8 160.62L118.814 146.747C117.52 146.001 117.606 144.822 119 144.128L127.015 140.137C128.408 139.444 130.611 139.488 131.904 140.235L155.891 154.108C157.184 154.854 157.098 156.034 155.704 156.727L147.689 160.717C146.296 161.411 144.093 161.367 142.8 160.62Z" fill="#BFC6ED"/>
<path d="M193.316 229.286L58.0849 205.665L30.9604 125.933" stroke="url(#paint1_linear_421_34068)" stroke-linecap="round" stroke-linejoin="round"/>
<path d="M106.711 78.4214L37.3735 116.572" stroke="url(#paint2_linear_421_34068)" stroke-linecap="round" stroke-linejoin="round"/>
<path d="M107.463 74.6034L86.7812 62.1451L107.765 50.508L128.651 62.9476L107.463 74.6034Z" fill="#2A30B1"/>
<path d="M107.132 67.9375L96.7207 61.6674L107.285 55.8077L117.797 62.0704L107.132 67.9375Z" fill="#56FFE1"/>
<path d="M107.463 74.6034L106.823 90.0288L86.5396 77.5257L86.8112 62.1451L107.463 74.6034Z" fill="#27248C"/>
<path d="M107.463 74.6034L128.652 62.9476L128.391 77.6003L106.823 90.0288L107.463 74.6034Z" fill="url(#paint3_linear_421_34068)"/>
<path d="M34.1764 125.784L19.2075 116.766L34.3963 108.343L49.5106 117.345L34.1764 125.784Z" fill="url(#paint4_linear_421_34068)"/>
<path d="M33.9376 120.958L26.4028 116.419L34.0457 112.18L41.655 116.711L33.9376 120.958Z" fill="white"/>
<path d="M34.1763 125.784L33.7105 136.947L19.0322 127.896L19.2297 116.766L34.1763 125.784Z" fill="url(#paint5_linear_421_34068)"/>
<path d="M34.1763 125.784L49.5104 117.345L49.324 127.952L33.7104 136.947L34.1763 125.784Z" fill="#3D56F4"/>
<path d="M108.034 51.8105L93.064 42.7934L108.25 34.3697L123.367 43.3719L108.034 51.8105Z" fill="url(#paint6_linear_421_34068)"/>
<path d="M107.791 46.9848L100.256 42.4463L107.903 38.2065L115.512 42.7411L107.791 46.9848Z" fill="white"/>
<path d="M108.034 51.8105L107.568 62.9736L92.8892 53.923L93.0873 42.7934L108.034 51.8105Z" fill="url(#paint7_linear_421_34068)"/>
<path d="M108.034 51.8106L123.367 43.3719L123.178 53.9789L107.567 62.9736L108.034 51.8106Z" fill="#3D56F4"/>
<path d="M260.607 140.753L159.234 82.135C155.235 79.821 153.387 75.0288 154.8 70.6247L175.168 7.09073C177.079 1.13033 183.996 -1.54196 189.41 1.5894L290.783 60.2081C294.782 62.5221 296.63 67.3143 295.217 71.7183L274.849 135.252C272.938 141.213 266.021 143.885 260.607 140.753Z" fill="url(#paint8_linear_421_34068)"/>
<g style="mix-blend-mode:multiply">
<path d="M244.311 72.2259C245.105 67.8517 243.905 63.2387 240.589 62.1488C240.589 62.1488 232.443 58.2486 231.277 59.8348L233.363 70.7852L244.308 72.2259H244.311Z" fill="#E4E3FB"/>
</g>
<path d="M263.107 79.8061L162.383 21.2098C161.243 20.5492 160.024 20.6127 158.985 21.2397L156.469 22.8371L156.931 23.8896C156.867 24.0538 156.812 24.2255 156.76 24.4046L139.022 86.0615C138.146 89.0995 139.249 92.6372 141.466 93.9175L241.919 152.003C242.083 152.1 242.25 152.174 242.422 152.242L242.813 153.57L245.336 151.969V151.962C246.309 151.368 247.121 150.278 247.542 148.812L265.108 86.4758C265.984 83.4376 265.324 81.0937 263.107 79.8098V79.8061Z" fill="#2917C1"/>
<path d="M263.107 79.8061L162.383 21.2098C161.243 20.5492 160.024 20.6127 158.985 21.2397L156.469 22.8371L156.931 23.8896C156.867 24.0538 156.812 24.2255 156.76 24.4046L139.022 86.0615C138.146 89.0995 139.249 92.6372 141.466 93.9175L241.919 152.003C242.083 152.1 242.25 152.174 242.422 152.242L242.813 153.57L245.336 151.969V151.962C246.309 151.368 237.771 107.047 238.192 105.581C238.192 105.581 265.6 83.6093 265.269 82.4821C264.936 81.355 264.217 80.448 263.107 79.8061Z" fill="#D2D2D2"/>
<path d="M239.326 153.645L138.873 95.5599C136.656 94.2762 135.557 90.742 136.428 87.704L154.166 26.0469C155.042 23.0088 157.572 21.5718 159.789 22.8558L261.192 81.6013C263.41 82.8852 263.86 84.5983 262.984 87.6399L244.945 150.458C244.07 153.496 241.539 154.932 239.322 153.648L239.326 153.645Z" fill="#25235E"/>
<path d="M237.723 151.424L141.34 95.6906C139.212 94.459 138.158 91.0665 138.996 88.1515L156.014 28.9916C156.853 26.0767 159.283 24.6958 161.41 25.9274L258.706 82.2955C260.834 83.5271 261.266 85.173 260.428 88.0883L243.122 148.36C242.284 151.275 239.854 152.656 237.727 151.424H237.723Z" fill="url(#paint9_linear_421_34068)"/>
<path d="M133.369 110.922C133.22 111.008 132.919 110.974 132.695 110.843L126.494 107.26C126.271 107.13 126.211 106.954 126.356 106.869L130.467 104.491C130.615 104.406 130.918 104.439 131.141 104.57L137.341 108.153C137.565 108.283 137.625 108.455 137.48 108.54L133.369 110.918V110.922Z" fill="white" fill-opacity="0.6"/>
<path d="M140.561 121.626C140.412 121.711 140.11 121.678 139.883 121.547L133.682 117.964C133.458 117.834 133.399 117.662 133.548 117.577L137.658 115.199C137.803 115.114 138.106 115.147 138.329 115.277L144.53 118.86C144.757 118.991 144.813 119.166 144.668 119.248L140.558 121.626H140.561Z" fill="white" fill-opacity="0.8"/>
<path d="M136.924 126.071C136.775 126.157 136.473 126.119 136.249 125.993L130.045 122.406C129.825 122.279 129.758 122.103 129.907 122.018L134.018 119.64C134.163 119.555 134.469 119.591 134.688 119.719L140.892 123.305C141.116 123.436 141.176 123.612 141.031 123.694L136.92 126.071H136.924Z" fill="white" fill-opacity="0.8"/>
<path d="M127.083 126.93C126.938 127.015 126.632 126.982 126.412 126.851L120.212 123.264C119.991 123.138 119.928 122.962 120.077 122.876L124.187 120.499C124.337 120.413 124.638 120.45 124.862 120.577L131.063 124.163C131.287 124.291 131.342 124.466 131.197 124.552L127.086 126.93H127.083Z" fill="white" fill-opacity="0.8"/>
<path d="M110.016 124.432C109.867 124.519 109.565 124.481 109.342 124.354L103.141 120.771C102.917 120.64 102.854 120.469 103.002 120.383L107.829 117.591C107.974 117.509 108.279 117.543 108.503 117.67L114.704 121.253C114.927 121.383 114.987 121.558 114.842 121.64L110.016 124.432Z" fill="white" fill-opacity="0.8"/>
<path d="M120.71 130.614C120.562 130.699 120.204 130.632 119.909 130.46L111.783 125.765C111.491 125.597 111.373 125.388 111.521 125.302L116.347 122.511C116.493 122.428 116.854 122.495 117.145 122.664L125.272 127.359C125.566 127.53 125.682 127.74 125.536 127.822L120.71 130.614Z" fill="white" fill-opacity="0.8"/>
<path d="M174.091 161.512C173.968 161.583 173.685 161.535 173.462 161.408L167.264 157.825C167.037 157.694 166.955 157.53 167.078 157.459L168.863 156.425C168.986 156.354 169.269 156.403 169.497 156.534L175.693 160.116C175.917 160.247 175.999 160.408 175.876 160.479L174.091 161.512Z" fill="white" fill-opacity="0.8"/>
<path d="M182.378 166.428C182.255 166.499 181.972 166.45 181.749 166.323L175.551 162.74C175.324 162.61 175.242 162.446 175.365 162.375L177.15 161.34C177.273 161.27 177.557 161.318 177.784 161.449L183.981 165.032C184.204 165.162 184.286 165.323 184.163 165.394L182.378 166.428Z" fill="white" fill-opacity="0.8"/>
<path d="M190.942 171.042C190.823 171.109 190.544 171.06 190.32 170.93L184.119 167.347C183.895 167.22 183.806 167.056 183.925 166.985L185.643 165.992C185.762 165.925 186.045 165.973 186.265 166.104L192.466 169.687C192.69 169.818 192.775 169.978 192.656 170.046L190.938 171.038L190.942 171.042Z" fill="white" fill-opacity="0.8"/>
<path d="M185.762 164.532C185.643 164.599 185.364 164.55 185.14 164.42L178.939 160.836C178.716 160.71 178.626 160.546 178.746 160.475L180.464 159.482C180.582 159.415 180.866 159.463 181.085 159.594L187.286 163.177C187.51 163.307 187.596 163.468 187.477 163.535L185.759 164.528L185.762 164.532Z" fill="white" fill-opacity="0.8"/>
<path d="M163.374 155.269C163.225 155.354 162.92 155.316 162.696 155.187L122.336 131.86C122.115 131.732 122.049 131.554 122.197 131.468L127.023 128.676C127.168 128.594 127.478 128.628 127.698 128.754L168.058 152.081C168.282 152.212 168.345 152.387 168.2 152.473L163.374 155.264V155.269Z" fill="white" fill-opacity="0.8"/>
<path d="M119.604 129.075C119.604 129.075 119.567 129.075 119.54 129.057L114.801 126.317C114.774 126.302 114.76 126.284 114.771 126.28L115.069 126.108C115.069 126.108 115.106 126.108 115.132 126.127L119.872 128.866C119.898 128.881 119.913 128.9 119.902 128.904L119.604 129.075Z" fill="white" fill-opacity="0.8"/>
<path d="M107.449 121.525C107.449 121.525 107.422 121.529 107.411 121.525L105.399 120.361C105.399 120.361 105.388 120.346 105.399 120.338L105.697 120.166C105.697 120.166 105.723 120.163 105.735 120.166L107.747 121.331C107.747 121.331 107.758 121.346 107.747 121.353L107.449 121.525Z" fill="#3364E3" fill-opacity="0.6"/>
<path d="M135.586 131.837C135.441 131.923 135.136 131.89 134.912 131.759L128.711 128.176C128.491 128.049 128.428 127.87 128.573 127.788L132.684 125.41C132.832 125.324 133.138 125.362 133.357 125.489L139.558 129.072C139.782 129.203 139.842 129.378 139.697 129.464L135.586 131.841V131.837Z" fill="white" fill-opacity="0.8"/>
<path d="M144.123 136.775C143.978 136.861 143.672 136.824 143.453 136.696L137.252 133.113C137.028 132.987 136.965 132.808 137.114 132.722L141.225 130.345C141.373 130.258 141.679 130.296 141.898 130.423L148.099 134.006C148.319 134.132 148.379 134.308 148.233 134.394L144.123 136.772V136.775Z" fill="white" fill-opacity="0.8"/>
<path d="M152.664 141.709C152.519 141.795 152.213 141.758 151.994 141.631L145.793 138.044C145.573 137.917 145.51 137.742 145.659 137.656L149.769 135.279C149.918 135.192 150.22 135.227 150.444 135.357L156.644 138.944C156.864 139.071 156.924 139.246 156.778 139.331L152.668 141.709H152.664Z" fill="white" fill-opacity="0.8"/>
<path d="M161.205 146.647C161.06 146.733 160.754 146.7 160.535 146.569L154.334 142.982C154.11 142.851 154.051 142.676 154.196 142.59L158.307 140.213C158.455 140.126 158.757 140.161 158.98 140.291L165.181 143.878C165.405 144.008 165.465 144.18 165.315 144.265L161.205 146.643V146.647Z" fill="white" fill-opacity="0.8"/>
<path d="M169.746 151.581C169.601 151.667 169.295 151.629 169.068 151.499L162.867 147.916C162.647 147.789 162.584 147.613 162.733 147.528L166.843 145.15C166.993 145.065 167.294 145.098 167.518 145.229L173.719 148.812C173.942 148.942 174.006 149.117 173.856 149.204L169.746 151.581Z" fill="white" fill-opacity="0.8"/>
<path d="M178.287 156.515C178.142 156.601 177.836 156.563 177.612 156.436L171.412 152.853C171.188 152.723 171.129 152.548 171.274 152.462L175.384 150.084C175.534 149.998 175.835 150.036 176.059 150.163L182.259 153.746C182.483 153.872 182.542 154.052 182.394 154.138L178.284 156.515H178.287Z" fill="white" fill-opacity="0.8"/>
<path d="M197.523 167.633C197.377 167.719 197.072 167.682 196.848 167.555L179.953 157.787C179.729 157.657 179.67 157.482 179.815 157.4L183.925 155.022C184.075 154.936 184.376 154.97 184.6 155.1L201.495 164.868C201.718 164.998 201.778 165.174 201.63 165.26L197.519 167.637L197.523 167.633Z" fill="white" fill-opacity="0.8"/>
<path d="M145.424 130.979C145.275 131.065 144.977 131.031 144.753 130.901L138.549 127.314C138.325 127.184 138.262 127.012 138.411 126.926L142.521 124.549C142.666 124.462 142.969 124.5 143.192 124.626L149.397 128.214C149.62 128.344 149.676 128.516 149.531 128.601L145.42 130.979H145.424Z" fill="white" fill-opacity="0.8"/>
<path d="M153.965 135.917C153.816 136.003 153.514 135.965 153.294 135.838L147.09 132.252C146.87 132.124 146.806 131.949 146.956 131.863L151.066 129.486C151.211 129.4 151.513 129.437 151.733 129.565L157.938 133.151C158.157 133.278 158.22 133.453 158.075 133.539L153.965 135.917Z" fill="white" fill-opacity="0.8"/>
<path d="M162.506 140.851C162.356 140.937 162.055 140.899 161.831 140.772L155.63 137.189C155.411 137.063 155.343 136.887 155.492 136.801L159.603 134.424C159.748 134.338 160.057 134.379 160.278 134.506L166.478 138.089C166.698 138.216 166.761 138.395 166.616 138.477L162.506 140.854V140.851Z" fill="white" fill-opacity="0.8"/>
<path d="M171.043 145.788C170.894 145.874 170.592 145.837 170.372 145.711L164.172 142.127C163.948 141.997 163.885 141.825 164.033 141.739L168.144 139.361C168.289 139.276 168.591 139.313 168.814 139.44L175.015 143.023C175.239 143.15 175.299 143.325 175.153 143.411L171.043 145.788Z" fill="white" fill-opacity="0.8"/>
<path d="M179.588 150.722C179.438 150.809 179.137 150.771 178.917 150.644L172.712 147.057C172.489 146.927 172.429 146.755 172.578 146.67L176.688 144.292C176.833 144.206 177.136 144.243 177.36 144.37L183.564 147.957C183.783 148.084 183.846 148.259 183.701 148.345L179.591 150.722H179.588Z" fill="white" fill-opacity="0.8"/>
<path d="M188.125 155.656C187.976 155.743 187.678 155.705 187.454 155.578L181.254 151.995C181.03 151.864 180.967 151.693 181.115 151.604L185.226 149.226C185.371 149.14 185.673 149.177 185.9 149.308L192.101 152.891C192.324 153.018 192.384 153.193 192.239 153.279L188.129 155.656H188.125Z" fill="white" fill-opacity="0.8"/>
<path d="M196.666 160.59C196.517 160.677 196.215 160.639 195.995 160.512L189.79 156.926C189.571 156.798 189.507 156.623 189.656 156.537L193.767 154.16C193.912 154.074 194.213 154.111 194.434 154.239L200.638 157.825C200.857 157.952 200.921 158.127 200.775 158.213L196.666 160.59Z" fill="white" fill-opacity="0.8"/>
<path d="M149.064 126.538C148.916 126.623 148.613 126.59 148.39 126.459L142.19 122.876C141.969 122.749 141.906 122.574 142.059 122.488L146.169 120.111C146.314 120.025 146.616 120.062 146.84 120.189L153.041 123.772C153.264 123.903 153.324 124.078 153.178 124.16L149.069 126.538H149.064Z" fill="white" fill-opacity="0.8"/>
<path d="M157.602 131.472C157.453 131.557 157.148 131.524 156.927 131.397L150.727 127.814C150.503 127.683 150.444 127.512 150.593 127.422L154.703 125.045C154.849 124.959 155.153 124.996 155.374 125.123L161.575 128.706C161.794 128.833 161.857 129.009 161.709 129.094L157.599 131.472H157.602Z" fill="white" fill-opacity="0.8"/>
<path d="M166.143 136.406C165.993 136.491 165.692 136.458 165.465 136.327L159.264 132.745C159.043 132.617 158.98 132.442 159.13 132.356L163.24 129.979C163.385 129.893 163.687 129.93 163.91 130.057L170.111 133.64C170.335 133.77 170.394 133.946 170.249 134.028L166.139 136.406H166.143Z" fill="white" fill-opacity="0.8"/>
<path d="M174.68 141.344C174.531 141.429 174.229 141.396 174.005 141.268L167.805 137.682C167.581 137.551 167.521 137.38 167.671 137.29L171.781 134.913C171.926 134.827 172.228 134.864 172.451 134.991L178.652 138.578C178.875 138.709 178.935 138.88 178.787 138.966L174.676 141.344H174.68Z" fill="white" fill-opacity="0.8"/>
<path d="M183.22 146.273C183.072 146.36 182.77 146.326 182.55 146.199L176.349 142.613C176.126 142.482 176.067 142.31 176.215 142.221L180.325 139.843C180.471 139.757 180.773 139.791 180.996 139.921L187.197 143.508C187.417 143.635 187.476 143.81 187.331 143.896L183.22 146.273Z" fill="white" fill-opacity="0.8"/>
<path d="M191.766 151.212C191.616 151.297 191.315 151.264 191.088 151.133L184.887 147.55C184.666 147.423 184.603 147.248 184.753 147.162L188.863 144.785C189.008 144.698 189.314 144.736 189.533 144.863L195.734 148.446C195.958 148.577 196.021 148.752 195.876 148.834L191.766 151.212Z" fill="white" fill-opacity="0.8"/>
<path d="M200.302 156.149C200.154 156.235 199.852 156.201 199.628 156.071L193.428 152.484C193.204 152.354 193.144 152.182 193.294 152.092L197.404 149.715C197.549 149.629 197.851 149.667 198.074 149.793L204.275 153.38C204.495 153.507 204.558 153.683 204.413 153.768L200.302 156.146V156.149Z" fill="white" fill-opacity="0.8"/>
<path d="M132.024 116.692C131.875 116.778 131.573 116.744 131.35 116.613L120.833 110.534C120.61 110.403 120.546 110.227 120.699 110.142L124.81 107.764C124.955 107.679 125.257 107.716 125.484 107.843L136 113.923C136.224 114.054 136.283 114.229 136.138 114.311L132.028 116.688L132.024 116.692Z" fill="white" fill-opacity="0.8"/>
<path d="M214.5 157.81C214.351 157.896 214.049 157.863 213.826 157.732L203.31 151.652C203.09 151.525 203.027 151.349 203.176 151.264L207.286 148.886C207.435 148.801 207.741 148.837 207.96 148.965L218.477 155.045C218.699 155.175 218.759 155.346 218.614 155.433L214.504 157.81H214.5Z" fill="#3364E3" fill-opacity="0.6"/>
<path d="M128.384 121.133C128.234 121.219 127.936 121.185 127.709 121.055L115.173 113.811C114.95 113.68 114.886 113.509 115.036 113.422L119.146 111.045C119.291 110.959 119.593 110.997 119.816 111.123L132.352 118.368C132.58 118.498 132.635 118.673 132.49 118.756L128.379 121.133H128.384Z" fill="white" fill-opacity="0.8"/>
<path d="M118.546 121.996C118.4 122.081 118.095 122.044 117.871 121.917L109.513 117.087C109.29 116.957 109.23 116.782 109.375 116.7L113.486 114.322C113.634 114.236 113.937 114.27 114.16 114.4L122.518 119.234C122.742 119.364 122.801 119.539 122.656 119.626L118.546 122.003V121.996Z" fill="white" fill-opacity="0.8"/>
<path d="M141.906 115.86C141.758 115.945 141.456 115.912 141.232 115.781L135.035 112.198C134.812 112.068 134.752 111.892 134.897 111.806L139.008 109.429C139.156 109.343 139.459 109.381 139.682 109.507L145.879 113.09C146.106 113.221 146.166 113.396 146.016 113.482L141.906 115.86Z" fill="white" fill-opacity="0.8"/>
<path d="M150.406 120.768C150.257 120.853 149.955 120.816 149.731 120.689L143.531 117.106C143.308 116.98 143.248 116.804 143.393 116.718L147.503 114.341C147.652 114.255 147.954 114.292 148.178 114.419L154.378 118.002C154.602 118.133 154.665 118.308 154.516 118.394L150.406 120.771V120.768Z" fill="white" fill-opacity="0.8"/>
<path d="M158.943 125.702C158.794 125.787 158.496 125.754 158.272 125.623L152.071 122.04C151.848 121.913 151.789 121.738 151.937 121.652L156.048 119.275C156.197 119.188 156.498 119.223 156.722 119.353L162.923 122.936C163.146 123.067 163.206 123.238 163.057 123.324L158.947 125.702H158.943Z" fill="white" fill-opacity="0.8"/>
<path d="M167.488 130.639C167.339 130.725 167.037 130.688 166.813 130.561L160.617 126.978C160.393 126.847 160.33 126.672 160.479 126.586L164.589 124.209C164.738 124.122 165.039 124.157 165.263 124.287L171.46 127.87C171.684 128.001 171.747 128.173 171.598 128.262L167.488 130.639Z" fill="white" fill-opacity="0.8"/>
<path d="M176.025 135.573C175.876 135.66 175.578 135.625 175.354 135.495L169.153 131.912C168.93 131.781 168.866 131.606 169.016 131.52L173.126 129.143C173.275 129.057 173.577 129.091 173.8 129.221L180.001 132.804C180.225 132.935 180.284 133.107 180.135 133.192L176.025 135.57V135.573Z" fill="white" fill-opacity="0.8"/>
<path d="M184.57 140.507C184.42 140.593 184.119 140.556 183.899 140.429L177.694 136.842C177.475 136.715 177.412 136.54 177.56 136.454L181.67 134.077C181.82 133.991 182.121 134.025 182.341 134.155L188.546 137.742C188.766 137.868 188.829 138.044 188.68 138.13L184.57 140.507Z" fill="white" fill-opacity="0.8"/>
<path d="M193.108 145.445C192.958 145.531 192.657 145.497 192.433 145.367L186.232 141.783C186.008 141.654 185.945 141.478 186.094 141.392L190.205 139.014C190.353 138.929 190.655 138.966 190.883 139.093L197.083 142.676C197.307 142.807 197.366 142.978 197.221 143.064L193.111 145.441L193.108 145.445Z" fill="white" fill-opacity="0.8"/>
<path d="M201.644 150.379C201.496 150.465 201.193 150.431 200.974 150.305L194.765 146.717C194.546 146.591 194.486 146.415 194.635 146.33L198.745 143.952C198.894 143.867 199.196 143.9 199.416 144.027L205.624 147.613C205.844 147.741 205.903 147.916 205.758 148.002L201.648 150.379H201.644Z" fill="white" fill-opacity="0.8"/>
<path d="M206.611 154.731C206.507 154.672 206.38 154.626 206.246 154.612C206.116 154.596 206.012 154.612 205.941 154.653L201.83 157.03C201.759 157.071 201.729 157.131 201.756 157.209C201.786 157.283 201.86 157.359 201.961 157.418L203.582 158.355L198.193 161.475C198.123 161.516 198.097 161.58 198.122 161.654C198.149 161.729 198.227 161.803 198.331 161.863L202.508 164.278C202.612 164.337 202.74 164.383 202.874 164.397C203.004 164.413 203.112 164.397 203.183 164.356L212.954 158.702C213.025 158.661 213.05 158.601 213.02 158.523C212.995 158.444 212.916 158.373 212.812 158.31L206.611 154.724V154.731Z" fill="white" fill-opacity="0.6"/>
<path d="M117.435 119.988C117.435 119.988 117.398 119.988 117.372 119.969L112.631 117.229C112.606 117.215 112.59 117.196 112.602 117.192L112.9 117.021C112.9 117.021 112.937 117.021 112.964 117.039L117.703 119.779C117.729 119.793 117.744 119.812 117.733 119.816L117.435 119.988Z" fill="white" fill-opacity="0.8"/>
<path d="M271.096 175.43L203.016 215.779" stroke="url(#paint10_linear_421_34068)" stroke-linecap="round" stroke-linejoin="round"/>
<path d="M271.481 175.061L250.411 163.271L271.011 150.969L292.285 162.729L271.481 175.061Z" fill="#2A30B1"/>
<path d="M270.936 168.41L260.331 162.475L270.701 156.28L281.407 162.203L270.936 168.41Z" fill="#56FFE1"/>
<path d="M271.481 175.061L271.331 190.497L250.657 178.651L250.445 163.271L271.481 175.061Z" fill="#27248C"/>
<path d="M271.481 175.061L292.285 162.729L292.489 177.385L271.331 190.497L271.481 175.061Z" fill="url(#paint11_linear_421_34068)"/>
<path d="M192.611 223.785L177.363 215.253L192.272 206.348L207.67 214.861L192.611 223.785Z" fill="url(#paint12_linear_421_34068)"/>
<path d="M192.217 218.97L184.54 214.674L192.045 210.196L199.796 214.48L192.217 218.97Z" fill="white"/>
<path d="M192.611 223.785L192.504 234.959L177.538 226.383L177.385 215.253L192.611 223.785Z" fill="url(#paint13_linear_421_34068)"/>
<path d="M192.611 223.785L207.67 214.861L207.819 225.468L192.503 234.959L192.611 223.785Z" fill="#3D56F4"/>
<path d="M225.723 82.1218L180.532 63.4708L172.919 92.9395L172.946 92.9498C172.293 94.5008 173.456 96.4601 176.33 98.1017L200.936 112.143C205.249 114.607 211.852 115.452 215.603 114.018C217.032 113.47 217.85 112.668 218.079 111.75L225.723 82.1218Z" fill="white"/>
<path d="M208.556 82.3018L184.009 68.5332C179.706 66.1169 179.245 62.9923 182.991 61.5915C186.733 60.1907 193.32 61.0135 197.623 63.4298L222.17 77.1985C226.473 79.6148 226.934 82.7393 223.188 84.1401C219.446 85.5409 212.858 84.7181 208.556 82.3018Z" fill="url(#paint14_linear_421_34068)"/>
<path d="M69.8427 200.351C58.8199 193.597 40.7084 193.182 29.3877 199.424C18.0669 205.666 17.8303 216.198 28.862 222.961C39.8848 229.715 57.9963 230.13 69.317 223.888C80.6377 217.646 80.8743 207.104 69.8427 200.351Z" fill="#2C28BA"/>
<path d="M193.267 67.0725L194.506 61.758C196.378 53.7337 204.875 49.8949 211.497 54.0803C215.983 56.9161 218.144 62.6455 216.773 68.0545L213.774 77.9904" stroke="url(#paint15_linear_421_34068)" stroke-width="8" stroke-linecap="round" stroke-linejoin="round"/>
<path d="M20.6619 212.083L19.8862 204.396L24.1567 206.478L20.6619 212.083Z" fill="#2C28BA"/>
<path d="M77.7884 212.083L71.9858 209.362L77.9645 200.98L77.7884 212.083Z" fill="#2C28BA"/>
<path d="M114.691 167.67L42.0928 207.161L57.076 216.353L108.265 188.082L113.985 178.063L114.691 167.67Z" fill="#2C28BA"/>
<path d="M109.791 161.691L41.2388 199.488L56.213 208.666L107.41 180.439L114.691 167.709L109.791 161.691Z" fill="url(#paint16_linear_421_34068)"/>
<path d="M68.9879 192.664C57.9641 185.91 39.8509 185.495 28.5291 191.737C22.8681 194.863 19.9851 199.056 19.8887 203.311C19.7924 207.566 22.4913 211.892 28.0033 215.274C39.0271 222.028 57.1404 222.443 68.4622 216.201C79.784 209.959 80.0206 199.427 68.9879 192.664Z" fill="url(#paint17_linear_421_34068)"/>
<path d="M42.9462 209.277C42.8852 211.869 39.2057 213.892 34.7241 213.787C30.2425 213.682 26.6589 211.501 26.72 208.91C26.7811 206.318 30.4605 204.295 34.9421 204.4C39.4237 204.505 43.0073 206.686 42.9462 209.277Z" fill="#D6E3F6"/>
<g style="mix-blend-mode:multiply" opacity="0.4">
<path d="M42.0928 211.665C40.6752 212.994 37.9456 213.853 34.8286 213.788C31.6324 213.723 28.894 212.694 27.5732 211.253C30.7518 208.467 40.3054 209.365 42.0928 211.665Z" fill="#9DA6B1"/>
</g>
<path d="M200.937 92.0957C200.669 95.9886 197.408 98.3758 193.641 97.4261C189.878 96.4763 187.039 92.5467 187.305 88.6537C187.573 84.7611 190.834 82.3734 194.601 83.3233C198.364 84.2731 201.203 88.2027 200.937 92.0957Z" fill="#05D9F4"/>
<path d="M271.962 149.752L256.993 140.735L272.181 132.312L287.295 141.314L271.962 149.752Z" fill="url(#paint18_linear_421_34068)"/>
<path d="M271.722 144.926L264.188 140.388L271.831 136.148L279.44 140.679L271.722 144.926Z" fill="white"/>
<path d="M271.962 149.752L271.495 160.915L256.817 151.864L257.015 140.735L271.962 149.752Z" fill="url(#paint19_linear_421_34068)"/>
<path d="M271.961 149.752L287.295 141.314L287.109 151.921L271.495 160.915L271.961 149.752Z" fill="#3D56F4"/>
<path d="M267.691 111.821L238.315 95.6983C234.682 93.7048 233.222 88.5956 235.066 84.3408C236.91 80.086 241.394 78.2386 245.023 80.2316L274.398 96.3551C278.032 98.3477 279.492 103.458 277.648 107.712C275.803 111.967 271.32 113.814 267.691 111.821Z" fill="url(#paint20_linear_421_34068)"/>
<path d="M245.418 89.6855L244.475 89.2114L245.403 88.8305L245 87.786L244.073 88.166L244.442 87.1548L243.503 86.6808L243.134 87.692L242.727 86.6432L241.803 87.0207L242.21 88.0695L241.267 87.5955L240.898 88.599L241.841 89.0773L240.912 89.454L241.315 90.4985L242.243 90.1185L241.874 91.1331L242.813 91.6037L243.182 90.5925L243.588 91.6447L244.512 91.2681L244.106 90.215L245.049 90.6933L245.418 89.6855Z" fill="white"/>
<path d="M250.452 92.3468L249.51 91.8728L250.437 91.4918L250.035 90.4507L249.107 90.8274L249.476 89.8161L248.541 89.3421L248.168 90.3568L247.762 89.3045L246.842 89.682L247.244 90.73L246.301 90.256L245.932 91.2638L246.878 91.7378L245.948 92.1153L246.35 93.1599L247.282 92.7832L246.908 93.7945L247.848 94.2685L248.217 93.253L248.623 94.3061L249.547 93.9286L249.141 92.8763L250.084 93.3538L250.452 92.3468Z" fill="white"/>
<path d="M255.487 95.0116L254.544 94.5333L255.471 94.1566L255.069 93.1112L254.141 93.4887L254.514 92.4775L253.575 92.0069L253.202 93.0181L252.8 91.9659L251.876 92.3425L252.282 93.3956L251.335 92.9173L250.967 93.9252L251.913 94.3992L250.981 94.7801L251.384 95.8247L252.315 95.4446L251.943 96.4558L252.882 96.9299L253.254 95.9186L253.657 96.9666L254.581 96.5899L254.175 95.5411L255.121 96.0151L255.487 95.0116Z" fill="white"/>
<path d="M260.525 97.6721L259.578 97.198L260.51 96.818L260.107 95.7726L259.176 96.1535L259.549 95.1422L258.609 94.6682L258.24 95.6795L257.835 94.6272L256.911 95.0039L257.316 96.0561L256.37 95.5821L256.004 96.5865L256.947 97.0605L256.015 97.4406L256.422 98.486L257.35 98.1051L256.981 99.1163L257.917 99.5903L258.289 98.5791L258.695 99.6322L259.616 99.2547L259.213 98.2024L260.156 98.6765L260.525 97.6721Z" fill="white"/>
<path d="M265.559 100.333L264.616 99.8594L265.545 99.4785L265.142 98.4339L264.214 98.8149L264.583 97.8027L263.644 97.3287L263.275 98.3408L262.869 97.292L261.945 97.6687L262.351 98.7175L261.409 98.2435L261.04 99.247L261.982 99.7253L261.054 100.102L261.456 101.147L262.385 100.766L262.016 101.782L262.954 102.252L263.323 101.24L263.73 102.293L264.654 101.916L264.248 100.864L265.19 101.341L265.559 100.333Z" fill="white"/>
<path d="M270.593 102.995L269.651 102.521L270.579 102.14L270.176 101.094L269.248 101.475L269.617 100.464L268.678 99.9901L268.309 101.006L267.903 99.9525L266.979 100.33L267.385 101.379L266.442 100.905L266.073 101.908L267.016 102.386L266.089 102.763L266.491 103.808L267.418 103.431L267.049 104.442L267.989 104.913L268.358 103.902L268.764 104.954L269.688 104.577L269.282 103.524L270.224 104.003L270.593 102.995Z" fill="white"/>
</g>
<defs>
<linearGradient id="paint0_linear_421_34068" x1="160.532" y1="98.4882" x2="160.532" y2="189.538" gradientUnits="userSpaceOnUse">
<stop stop-color="#A5DAF9"/>
<stop offset="1" stop-color="#4251D6"/>
</linearGradient>
<linearGradient id="paint1_linear_421_34068" x1="112.138" y1="125.933" x2="112.138" y2="229.286" gradientUnits="userSpaceOnUse">
<stop stop-color="#FEF5CE"/>
<stop offset="1" stop-color="#EECA48" stop-opacity="0.7"/>
</linearGradient>
<linearGradient id="paint2_linear_421_34068" x1="72.042" y1="78.4214" x2="72.042" y2="116.572" gradientUnits="userSpaceOnUse">
<stop stop-color="#FF9F43"/>
<stop offset="1" stop-color="#E4F7AF" stop-opacity="0"/>
</linearGradient>
<linearGradient id="paint3_linear_421_34068" x1="117.737" y1="62.9476" x2="117.737" y2="90.0288" gradientUnits="userSpaceOnUse">
<stop stop-color="#3D56F4"/>
<stop offset="1" stop-color="#3DC1F0"/>
</linearGradient>
<linearGradient id="paint4_linear_421_34068" x1="34.359" y1="108.343" x2="34.359" y2="125.784" gradientUnits="userSpaceOnUse">
<stop stop-color="#3FC5EF"/>
<stop offset="1" stop-color="#6E6EFB"/>
</linearGradient>
<linearGradient id="paint5_linear_421_34068" x1="26.6043" y1="116.766" x2="26.6043" y2="136.947" gradientUnits="userSpaceOnUse">
<stop stop-color="#402AFD"/>
<stop offset="1" stop-color="#00BCFF"/>
</linearGradient>
<linearGradient id="paint6_linear_421_34068" x1="108.216" y1="34.3697" x2="108.216" y2="51.8105" gradientUnits="userSpaceOnUse">
<stop stop-color="#3FC5EF"/>
<stop offset="1" stop-color="#6E6EFB"/>
</linearGradient>
<linearGradient id="paint7_linear_421_34068" x1="100.462" y1="42.7934" x2="100.462" y2="62.9736" gradientUnits="userSpaceOnUse">
<stop stop-color="#402AFD"/>
<stop offset="1" stop-color="#00BCFF"/>
</linearGradient>
<linearGradient id="paint8_linear_421_34068" x1="225.009" y1="0.267944" x2="225.009" y2="142.075" gradientUnits="userSpaceOnUse">
<stop stop-color="#CAF5F5"/>
<stop offset="1" stop-color="white"/>
</linearGradient>
<linearGradient id="paint9_linear_421_34068" x1="199.768" y1="25.4767" x2="199.768" y2="151.875" gradientUnits="userSpaceOnUse">
<stop stop-color="#C5F0FF"/>
<stop offset="1" stop-color="#687BF3"/>
</linearGradient>
<linearGradient id="paint10_linear_421_34068" x1="237.056" y1="175.43" x2="237.056" y2="215.779" gradientUnits="userSpaceOnUse">
<stop stop-color="#FF9F43"/>
<stop offset="1" stop-color="#F6F7AF" stop-opacity="0"/>
</linearGradient>
<linearGradient id="paint11_linear_421_34068" x1="281.911" y1="162.729" x2="281.911" y2="190.497" gradientUnits="userSpaceOnUse">
<stop stop-color="#3D56F4"/>
<stop offset="1" stop-color="#3DC1F0"/>
</linearGradient>
<linearGradient id="paint12_linear_421_34068" x1="192.517" y1="206.348" x2="192.517" y2="223.785" gradientUnits="userSpaceOnUse">
<stop stop-color="#3FC5EF"/>
<stop offset="1" stop-color="#6E6EFB"/>
</linearGradient>
<linearGradient id="paint13_linear_421_34068" x1="184.999" y1="215.253" x2="184.999" y2="234.959" gradientUnits="userSpaceOnUse">
<stop stop-color="#402AFD"/>
<stop offset="1" stop-color="#00BCFF"/>
</linearGradient>
<linearGradient id="paint14_linear_421_34068" x1="203.089" y1="60.9085" x2="203.089" y2="84.8231" gradientUnits="userSpaceOnUse">
<stop stop-color="#402AFD"/>
<stop offset="1" stop-color="#1AB99C"/>
</linearGradient>
<linearGradient id="paint15_linear_421_34068" x1="205.224" y1="52.3676" x2="205.224" y2="77.9904" gradientUnits="userSpaceOnUse">
<stop stop-color="#3D56F4"/>
<stop offset="1" stop-color="#6EF4DB"/>
</linearGradient>
<linearGradient id="paint16_linear_421_34068" x1="77.9648" y1="161.691" x2="77.9648" y2="208.666" gradientUnits="userSpaceOnUse">
<stop stop-color="#CBF2FB"/>
<stop offset="1" stop-color="#0022FF"/>
</linearGradient>
<linearGradient id="paint17_linear_421_34068" x1="48.4983" y1="187.314" x2="48.4983" y2="220.624" gradientUnits="userSpaceOnUse">
<stop stop-color="#CBF2FB"/>
<stop offset="1" stop-color="#6374EA"/>
</linearGradient>
<linearGradient id="paint18_linear_421_34068" x1="272.143" y1="132.312" x2="272.143" y2="149.752" gradientUnits="userSpaceOnUse">
<stop stop-color="#3FC5EF"/>
<stop offset="1" stop-color="#6E6EFB"/>
</linearGradient>
<linearGradient id="paint19_linear_421_34068" x1="264.389" y1="140.735" x2="264.389" y2="160.915" gradientUnits="userSpaceOnUse">
<stop stop-color="#402AFD"/>
<stop offset="1" stop-color="#00BCFF"/>
</linearGradient>
<linearGradient id="paint20_linear_421_34068" x1="256.357" y1="79.4288" x2="256.357" y2="112.624" gradientUnits="userSpaceOnUse">
<stop stop-color="#DFFD2A"/>
<stop offset="1" stop-color="#FF9F43"/>
</linearGradient>
<clipPath id="clip0_421_34068">
<rect width="295.516" height="240" fill="white" transform="translate(0.242188 0.267944)"/>
</clipPath>
</defs>
</svg>
