<svg width="106" height="38" viewBox="0 0 106 38" fill="none" xmlns="http://www.w3.org/2000/svg">
<path d="M79.02 34.6V37H78.21C76.09 37 74.52 36.88 73.5 36.64C72.48 36.38 71.4 35.82 70.26 34.96C69.12 34.08 68.21 32.94 67.53 31.54C66.85 30.14 66.51 28.62 66.51 26.98C66.51 24.16 67.5 21.79 69.48 19.87C71.46 17.95 73.92 16.99 76.86 16.99H79.02V19.39H77.55C75.11 19.39 73.12 20.1 71.58 21.52C70.04 22.94 69.27 24.78 69.27 27.04C69.27 28.38 69.6 29.65 70.26 30.85C70.92 32.03 71.69 32.88 72.57 33.4C73.45 33.92 74.27 34.25 75.03 34.39C75.79 34.53 76.91 34.6 78.39 34.6H79.02ZM95.3074 37H92.6374V28.36H85.0174V26.05H92.6374V24.76C92.6374 23.6 92.5774 22.76 92.4574 22.24C92.3574 21.72 92.0174 21.05 91.4374 20.23C90.8574 19.39 89.8574 18.97 88.4374 18.97C85.4974 18.97 84.0274 20.82 84.0274 24.52V37H81.3574V24.64C81.3574 22.1 81.9674 20.12 83.1874 18.7C84.4274 17.26 86.1374 16.54 88.3174 16.54C89.5574 16.54 90.6774 16.81 91.6774 17.35C92.6974 17.87 93.4674 18.54 93.9874 19.36C94.5274 20.18 94.8774 20.99 95.0374 21.79C95.2174 22.57 95.3074 23.57 95.3074 24.79V37Z" fill="#0B4296"/>
<path fill-rule="evenodd" clip-rule="evenodd" d="M27.7382 0.0135498H35.987V36H27.6835V11.6065L25.585 14.0396L20.6675 8.35002L27.7382 0.0135498Z" fill="#0B4296"/>
<path fill-rule="evenodd" clip-rule="evenodd" d="M0 0.0135498H7.66771L22.9387 17.1137L18.0895 22.7963L7.66771 10.8944V36H0V0.0135498Z" fill="#0B4296"/>
<path fill-rule="evenodd" clip-rule="evenodd" d="M48.0771 0H57.5501L47.1652 17.9315L57.5494 35.9862H48.0762L37.6919 17.9315L48.0771 0Z" fill="#EAC41D"/>
<path fill-rule="evenodd" clip-rule="evenodd" d="M66.0784 0.573113C66.6938 0.573148 67.2953 0.755663 67.807 1.09758C68.3186 1.43949 68.7174 1.92545 68.9528 2.49399C69.1883 3.06254 69.2499 3.68814 69.1298 4.29168C69.0097 4.89523 68.7133 5.44961 68.2782 5.88472C67.843 6.31983 67.2886 6.61613 66.685 6.73615C66.0815 6.85617 65.4559 6.79452 64.8874 6.559C64.3188 6.32347 63.8329 5.92465 63.4911 5.41296C63.1492 4.90128 62.9668 4.29971 62.9668 3.68434C62.9684 2.85962 63.2968 2.06915 63.88 1.48602C64.4632 0.902886 65.2537 0.574623 66.0784 0.573113ZM66.0784 0C66.8071 5.40643e-07 67.5194 0.216083 68.1253 0.620924C68.7312 1.02576 69.2034 1.60118 69.4823 2.2744C69.7611 2.94763 69.8341 3.68842 69.6919 4.40311C69.5498 5.1178 69.1989 5.77429 68.6836 6.28955C68.1683 6.80482 67.5118 7.15571 66.7972 7.29787C66.0825 7.44004 65.3417 7.36707 64.6684 7.08822C63.9952 6.80936 63.4198 6.33713 63.015 5.73124C62.6101 5.12536 62.394 4.41303 62.394 3.68434C62.396 2.70779 62.7848 1.7718 63.4753 1.08127C64.1658 0.39075 65.1018 0.00195255 66.0784 0Z" fill="#0B4296"/>
<path fill-rule="evenodd" clip-rule="evenodd" d="M65.1769 3.37445H66.2195C66.6094 3.37445 66.8735 3.27858 67.012 3.08685C67.0836 2.99169 67.1222 2.87574 67.1218 2.75664C67.127 2.66368 67.1067 2.57107 67.0631 2.48882C67.0195 2.40656 66.9543 2.33778 66.8744 2.2899C66.711 2.19769 66.5248 2.15349 66.3374 2.16239H65.1769L65.1769 3.37445ZM64.6929 5.42018V1.75698H66.3176C66.5354 1.74918 66.7531 1.77204 66.9645 1.8249C67.1735 1.88541 67.3518 2.02267 67.4638 2.20916C67.5668 2.37321 67.6216 2.56293 67.6218 2.75663C67.6218 3.31623 67.2778 3.64864 66.5896 3.75386C66.6952 3.79706 66.7929 3.8576 66.8786 3.933L66.977 4.03106C67.0144 4.06811 67.0495 4.10746 67.082 4.14888L67.1839 4.27812L67.284 4.42296L67.9209 5.42018H67.311L66.8266 4.65823C66.6918 4.44583 66.6035 4.30966 66.5615 4.25387C66.4719 4.12072 66.3598 4.00418 66.2303 3.90945C66.1632 3.86404 66.0886 3.83095 66.0099 3.81173L65.8994 3.79891H65.1769V5.42018H64.6929Z" fill="#0B4296"/>
</svg>
